<?xml version="1.0" encoding="UTF-8" standalone="no"?>
<!DOCTYPE svg PUBLIC "-//W3C//DTD SVG 1.1//EN"
 "http://www.w3.org/Graphics/SVG/1.1/DTD/svg11.dtd">
<!-- Generated by graphviz version 3.0.0 (20220226.1711)
 -->
<!-- Title: G Pages: 1 -->
<svg width="326pt" height="387pt"
 viewBox="0.00 0.00 326.00 387.00" xmlns="http://www.w3.org/2000/svg" xmlns:xlink="http://www.w3.org/1999/xlink">
<g id="graph0" class="graph" transform="scale(1 1) rotate(0) translate(4 383)">
<title>G</title>
<polygon fill="white" stroke="transparent" points="-4,4 -4,-383 322,-383 322,4 -4,4"/>
<g id="clust1" class="cluster">
<title>cluster_global</title>
<polygon fill="none" stroke="black" points="8,-8 8,-371 310,-371 310,-8 8,-8"/>
<text text-anchor="middle" x="159" y="-355.8" font-family="Times,serif" font-size="14.00">global</text>
</g>
<!-- csdl_alpha.src.operations.mult.Mult object at 0x7ff65ccaed60 -->
<g id="3" class="node">
<title>csdl_alpha.src.operations.mult.Mult object at 0x7ff65ccaed60</title>
<polygon fill="none" stroke="black" points="276,-268 222,-268 222,-232 276,-232 276,-268"/>
<text text-anchor="middle" x="249" y="-246.3" font-family="Times,serif" font-size="14.00">mult</text>
</g>
<!-- csdl_alpha.src.graph.variable.Variable object at 0x7ff65ccaedc0 -->
<g id="2" class="node">
<title>csdl_alpha.src.graph.variable.Variable object at 0x7ff65ccaedc0</title>
<g id="a_2"><a xlink:title="6.000e+00, 6.000e+00, 6.000e+00, (1,)">
<ellipse fill="none" stroke="black" cx="249" cy="-178" rx="27" ry="18"/>
<text text-anchor="middle" x="249" y="-174.3" font-family="Times,serif" font-size="14.00">var</text>
</a>
</g>
</g>
<!-- csdl_alpha.src.operations.mult.Mult object at 0x7ff65ccaed60&#45;&gt;csdl_alpha.src.graph.variable.Variable object at 0x7ff65ccaedc0 -->
<g id="edge1" class="edge">
<title>csdl_alpha.src.operations.mult.Mult object at 0x7ff65ccaed60&#45;&gt;csdl_alpha.src.graph.variable.Variable object at 0x7ff65ccaedc0</title>
<path fill="none" stroke="black" d="M249,-231.7C249,-223.98 249,-214.71 249,-206.11"/>
<polygon fill="black" stroke="black" points="252.5,-206.1 249,-196.1 245.5,-206.1 252.5,-206.1"/>
</g>
<!-- csdl_alpha.src.operations.add.Add object at 0x7ff65ccaed90 -->
<g id="5" class="node">
<title>csdl_alpha.src.operations.add.Add object at 0x7ff65ccaed90</title>
<polygon fill="none" stroke="black" points="253,-124 199,-124 199,-88 253,-88 253,-124"/>
<text text-anchor="middle" x="226" y="-102.3" font-family="Times,serif" font-size="14.00">add</text>
</g>
<!-- csdl_alpha.src.graph.variable.Variable object at 0x7ff65ccaedc0&#45;&gt;csdl_alpha.src.operations.add.Add object at 0x7ff65ccaed90 -->
<g id="edge6" class="edge">
<title>csdl_alpha.src.graph.variable.Variable object at 0x7ff65ccaedc0&#45;&gt;csdl_alpha.src.operations.add.Add object at 0x7ff65ccaed90</title>
<path fill="none" stroke="black" d="M243.43,-160.05C240.84,-152.18 237.7,-142.62 234.8,-133.79"/>
<polygon fill="black" stroke="black" points="238.12,-132.68 231.68,-124.28 231.47,-134.87 238.12,-132.68"/>
</g>
<!-- csdl_alpha.src.graph.variable.Variable object at 0x7ff65ccaed30 -->
<g id="1" class="node">
<title>csdl_alpha.src.graph.variable.Variable object at 0x7ff65ccaed30</title>
<g id="a_1"><a xlink:title="2.000e+00, 2.000e+00, 2.000e+00, (1,)">
<ellipse fill="none" stroke="black" cx="275" cy="-322" rx="27" ry="18"/>
<text text-anchor="middle" x="275" y="-318.3" font-family="Times,serif" font-size="14.00">y</text>
</a>
</g>
</g>
<!-- csdl_alpha.src.graph.variable.Variable object at 0x7ff65ccaed30&#45;&gt;csdl_alpha.src.operations.mult.Mult object at 0x7ff65ccaed60 -->
<g id="edge2" class="edge">
<title>csdl_alpha.src.graph.variable.Variable object at 0x7ff65ccaed30&#45;&gt;csdl_alpha.src.operations.mult.Mult object at 0x7ff65ccaed60</title>
<path fill="none" stroke="black" d="M268.84,-304.41C265.91,-296.54 262.35,-286.93 259.04,-278.04"/>
<polygon fill="black" stroke="black" points="262.24,-276.6 255.48,-268.45 255.68,-279.04 262.24,-276.6"/>
</g>
<!-- csdl_alpha.src.graph.variable.Variable object at 0x7ff658d47f70 -->
<g id="0" class="node">
<title>csdl_alpha.src.graph.variable.Variable object at 0x7ff658d47f70</title>
<g id="a_0"><a xlink:title="3.000e+00, 3.000e+00, 3.000e+00, (1,)">
<ellipse fill="none" stroke="black" cx="203" cy="-322" rx="27" ry="18"/>
<text text-anchor="middle" x="203" y="-318.3" font-family="Times,serif" font-size="14.00">x</text>
</a>
</g>
</g>
<!-- csdl_alpha.src.graph.variable.Variable object at 0x7ff658d47f70&#45;&gt;csdl_alpha.src.operations.mult.Mult object at 0x7ff65ccaed60 -->
<g id="edge3" class="edge">
<title>csdl_alpha.src.graph.variable.Variable object at 0x7ff658d47f70&#45;&gt;csdl_alpha.src.operations.mult.Mult object at 0x7ff65ccaed60</title>
<path fill="none" stroke="black" d="M213.44,-305.12C218.96,-296.72 225.87,-286.2 232.13,-276.67"/>
<polygon fill="black" stroke="black" points="235.07,-278.57 237.64,-268.29 229.22,-274.73 235.07,-278.57"/>
</g>
<!-- csdl_alpha.src.graph.variable.Variable object at 0x7ff658d47f70&#45;&gt;csdl_alpha.src.operations.add.Add object at 0x7ff65ccaed90 -->
<g id="edge5" class="edge">
<title>csdl_alpha.src.graph.variable.Variable object at 0x7ff658d47f70&#45;&gt;csdl_alpha.src.operations.add.Add object at 0x7ff65ccaed90</title>
<path fill="none" stroke="black" d="M203.06,-303.97C203.39,-274.48 205.07,-212.05 213,-160 214.31,-151.44 216.34,-142.23 218.41,-133.94"/>
<polygon fill="black" stroke="black" points="221.85,-134.59 221,-124.03 215.08,-132.82 221.85,-134.59"/>
</g>
<!-- csdl_alpha.src.graph.variable.Variable object at 0x7ff65ccaee20 -->
<g id="4" class="node">
<title>csdl_alpha.src.graph.variable.Variable object at 0x7ff65ccaee20</title>
<g id="a_4"><a xlink:title="9.000e+00, 9.000e+00, 9.000e+00, (1,)">
<ellipse fill="none" stroke="black" cx="226" cy="-34" rx="27" ry="18"/>
<text text-anchor="middle" x="226" y="-30.3" font-family="Times,serif" font-size="14.00">z</text>
</a>
</g>
</g>
<!-- csdl_alpha.src.operations.add.Add object at 0x7ff65ccaed90&#45;&gt;csdl_alpha.src.graph.variable.Variable object at 0x7ff65ccaee20 -->
<g id="edge4" class="edge">
<title>csdl_alpha.src.operations.add.Add object at 0x7ff65ccaed90&#45;&gt;csdl_alpha.src.graph.variable.Variable object at 0x7ff65ccaee20</title>
<path fill="none" stroke="black" d="M226,-87.7C226,-79.98 226,-70.71 226,-62.11"/>
<polygon fill="black" stroke="black" points="229.5,-62.1 226,-52.1 222.5,-62.1 229.5,-62.1"/>
</g>
<!-- csdl_alpha.src.operations.set_get.setindex.BroadcastSetIndex object at 0x7ff65ccaef10 -->
<g id="9" class="node">
<title>csdl_alpha.src.operations.set_get.setindex.BroadcastSetIndex object at 0x7ff65ccaef10</title>
<polygon fill="none" stroke="black" points="141,-268 51,-268 51,-232 141,-232 141,-268"/>
<text text-anchor="middle" x="96" y="-246.3" font-family="Times,serif" font-size="14.00">broadcast_set</text>
</g>
<!-- csdl_alpha.src.graph.variable.Variable object at 0x7ff65ccaef70 -->
<g id="8" class="node">
<title>csdl_alpha.src.graph.variable.Variable object at 0x7ff65ccaef70</title>
<g id="a_8"><a xlink:title="1.000e+00, 1.000e+00, 1.000e+00, (1,)">
<ellipse fill="none" stroke="black" cx="96" cy="-178" rx="27" ry="18"/>
<text text-anchor="middle" x="96" y="-174.3" font-family="Times,serif" font-size="14.00">var</text>
</a>
</g>
</g>
<!-- csdl_alpha.src.operations.set_get.setindex.BroadcastSetIndex object at 0x7ff65ccaef10&#45;&gt;csdl_alpha.src.graph.variable.Variable object at 0x7ff65ccaef70 -->
<g id="edge7" class="edge">
<title>csdl_alpha.src.operations.set_get.setindex.BroadcastSetIndex object at 0x7ff65ccaef10&#45;&gt;csdl_alpha.src.graph.variable.Variable object at 0x7ff65ccaef70</title>
<path fill="none" stroke="black" d="M96,-231.7C96,-223.98 96,-214.71 96,-206.11"/>
<polygon fill="black" stroke="black" points="99.5,-206.1 96,-196.1 92.5,-206.1 99.5,-206.1"/>
</g>
<!-- csdl_alpha.src.graph.variable.Constant object at 0x7ff65ccaeee0 -->
<g id="7" class="node">
<title>csdl_alpha.src.graph.variable.Constant object at 0x7ff65ccaeee0</title>
<g id="a_7"><a xlink:title="1.000e+00, 1.000e+00, 1.000e+00, (1,)">
<ellipse fill="none" stroke="black" cx="131" cy="-322" rx="27" ry="18"/>
<text text-anchor="middle" x="131" y="-318.3" font-family="Times,serif" font-size="14.00">var</text>
</a>
</g>
</g>
<!-- csdl_alpha.src.graph.variable.Constant object at 0x7ff65ccaeee0&#45;&gt;csdl_alpha.src.operations.set_get.setindex.BroadcastSetIndex object at 0x7ff65ccaef10 -->
<g id="edge8" class="edge">
<title>csdl_alpha.src.graph.variable.Constant object at 0x7ff65ccaeee0&#45;&gt;csdl_alpha.src.operations.set_get.setindex.BroadcastSetIndex object at 0x7ff65ccaef10</title>
<path fill="none" stroke="black" d="M122.88,-304.76C118.81,-296.61 113.76,-286.53 109.15,-277.31"/>
<polygon fill="black" stroke="black" points="112.16,-275.5 104.56,-268.12 105.9,-278.63 112.16,-275.5"/>
</g>
<!-- csdl_alpha.src.graph.variable.Variable object at 0x7ff65ccaedf0 -->
<g id="6" class="node">
<title>csdl_alpha.src.graph.variable.Variable object at 0x7ff65ccaedf0</title>
<g id="a_6"><a xlink:title="0.000e+00, 0.000e+00, 0.000e+00, (1,)">
<ellipse fill="none" stroke="black" cx="51" cy="-322" rx="35.19" ry="18"/>
<text text-anchor="middle" x="51" y="-318.3" font-family="Times,serif" font-size="14.00">seed_0</text>
</a>
</g>
</g>
<!-- csdl_alpha.src.graph.variable.Variable object at 0x7ff65ccaedf0&#45;&gt;csdl_alpha.src.operations.set_get.setindex.BroadcastSetIndex object at 0x7ff65ccaef10 -->
<g id="edge9" class="edge">
<title>csdl_alpha.src.graph.variable.Variable object at 0x7ff65ccaedf0&#45;&gt;csdl_alpha.src.operations.set_get.setindex.BroadcastSetIndex object at 0x7ff65ccaef10</title>
<path fill="none" stroke="black" d="M61.44,-304.76C66.79,-296.44 73.43,-286.1 79.46,-276.73"/>
<polygon fill="black" stroke="black" points="82.53,-278.43 84.99,-268.12 76.64,-274.64 82.53,-278.43"/>
</g>
</g>
</svg>
