<?xml version="1.0" encoding="UTF-8" standalone="no"?>
<!DOCTYPE svg PUBLIC "-//W3C//DTD SVG 1.1//EN"
 "http://www.w3.org/Graphics/SVG/1.1/DTD/svg11.dtd">
<!-- Generated by graphviz version 2.43.0 (0)
 -->
<!-- Title: G Pages: 1 -->
<svg width="194pt" height="398pt"
 viewBox="0.00 0.00 194.00 398.00" xmlns="http://www.w3.org/2000/svg" xmlns:xlink="http://www.w3.org/1999/xlink">
<g id="graph0" class="graph" transform="scale(1 1) rotate(0) translate(4 394)">
<title>G</title>
<polygon fill="white" stroke="transparent" points="-4,4 -4,-394 190,-394 190,4 -4,4"/>
<g id="clust1" class="cluster">
<title>cluster_global</title>
<polygon fill="none" stroke="black" points="8,-8 8,-382 178,-382 178,-8 8,-8"/>
<text text-anchor="middle" x="93" y="-366.8" font-family="Times,serif" font-size="14.00">global</text>
</g>
<g id="clust2" class="cluster">
<title>cluster_sample_namespace</title>
<polygon fill="none" stroke="black" points="16,-16 16,-163 170,-163 170,-16 16,-16"/>
<text text-anchor="middle" x="93" y="-147.8" font-family="Times,serif" font-size="14.00">sample_namespace</text>
</g>
<!-- csdl_alpha.src.graph.variable.Variable object at 0x74a32d7e56d0 -->
<g id="node1" class="node">
<title>csdl_alpha.src.graph.variable.Variable object at 0x74a32d7e56d0</title>
<ellipse fill="none" stroke="black" cx="129" cy="-333" rx="27" ry="18"/>
<text text-anchor="middle" x="129" y="-329.3" font-family="Times,serif" font-size="14.00">b</text>
</g>
<!-- csdl_alpha.src.operations.power.Power object at 0x74a32d7e5910 -->
<g id="node2" class="node">
<title>csdl_alpha.src.operations.power.Power object at 0x74a32d7e5910</title>
<ellipse fill="none" stroke="black" cx="119" cy="-261" rx="39.79" ry="18"/>
<text text-anchor="middle" x="119" y="-257.3" font-family="Times,serif" font-size="14.00">power</text>
</g>
<!-- csdl_alpha.src.graph.variable.Variable object at 0x74a32d7e56d0&#45;&gt;csdl_alpha.src.operations.power.Power object at 0x74a32d7e5910 -->
<g id="edge1" class="edge">
<title>csdl_alpha.src.graph.variable.Variable object at 0x74a32d7e56d0&#45;&gt;csdl_alpha.src.operations.power.Power object at 0x74a32d7e5910</title>
<path fill="none" stroke="black" d="M126.58,-315.05C125.48,-307.35 124.15,-298.03 122.91,-289.36"/>
<polygon fill="black" stroke="black" points="126.35,-288.68 121.47,-279.28 119.42,-289.67 126.35,-288.68"/>
</g>
<!-- csdl_alpha.src.graph.variable.Variable object at 0x74a32d7e5dc0 -->
<g id="node4" class="node">
<title>csdl_alpha.src.graph.variable.Variable object at 0x74a32d7e5dc0</title>
<ellipse fill="none" stroke="black" cx="119" cy="-189" rx="27" ry="18"/>
<text text-anchor="middle" x="119" y="-185.3" font-family="Times,serif" font-size="14.00">var</text>
</g>
<!-- csdl_alpha.src.operations.power.Power object at 0x74a32d7e5910&#45;&gt;csdl_alpha.src.graph.variable.Variable object at 0x74a32d7e5dc0 -->
<g id="edge3" class="edge">
<title>csdl_alpha.src.operations.power.Power object at 0x74a32d7e5910&#45;&gt;csdl_alpha.src.graph.variable.Variable object at 0x74a32d7e5dc0</title>
<path fill="none" stroke="black" d="M119,-242.7C119,-234.98 119,-225.71 119,-217.11"/>
<polygon fill="black" stroke="black" points="122.5,-217.1 119,-207.1 115.5,-217.1 122.5,-217.1"/>
</g>
<!-- csdl_alpha.src.graph.variable.Variable object at 0x74a32d7e5b50 -->
<g id="node3" class="node">
<title>csdl_alpha.src.graph.variable.Variable object at 0x74a32d7e5b50</title>
<ellipse fill="none" stroke="black" cx="57" cy="-333" rx="27" ry="18"/>
<text text-anchor="middle" x="57" y="-329.3" font-family="Times,serif" font-size="14.00">var</text>
</g>
<!-- csdl_alpha.src.graph.variable.Variable object at 0x74a32d7e5b50&#45;&gt;csdl_alpha.src.operations.power.Power object at 0x74a32d7e5910 -->
<g id="edge2" class="edge">
<title>csdl_alpha.src.graph.variable.Variable object at 0x74a32d7e5b50&#45;&gt;csdl_alpha.src.operations.power.Power object at 0x74a32d7e5910</title>
<path fill="none" stroke="black" d="M70.15,-317.15C78.19,-308.07 88.67,-296.24 97.86,-285.87"/>
<polygon fill="black" stroke="black" points="100.56,-288.1 104.57,-278.29 95.32,-283.46 100.56,-288.1"/>
</g>
<!-- csdl_alpha.src.operations.add.Add object at 0x74a2e621a5b0 -->
<g id="node6" class="node">
<title>csdl_alpha.src.operations.add.Add object at 0x74a2e621a5b0</title>
<ellipse fill="none" stroke="black" cx="85" cy="-114" rx="27.9" ry="18"/>
<text text-anchor="middle" x="85" y="-110.3" font-family="Times,serif" font-size="14.00">add</text>
</g>
<!-- csdl_alpha.src.graph.variable.Variable object at 0x74a32d7e5dc0&#45;&gt;csdl_alpha.src.operations.add.Add object at 0x74a2e621a5b0 -->
<g id="edge5" class="edge">
<title>csdl_alpha.src.graph.variable.Variable object at 0x74a32d7e5dc0&#45;&gt;csdl_alpha.src.operations.add.Add object at 0x74a2e621a5b0</title>
<path fill="none" stroke="black" d="M111.28,-171.44C107.07,-162.38 101.75,-150.97 97.01,-140.78"/>
<polygon fill="black" stroke="black" points="100.08,-139.09 92.68,-131.5 93.73,-142.04 100.08,-139.09"/>
</g>
<!-- csdl_alpha.src.graph.variable.Variable object at 0x74a32d7e57c0 -->
<g id="node5" class="node">
<title>csdl_alpha.src.graph.variable.Variable object at 0x74a32d7e57c0</title>
<ellipse fill="none" stroke="black" cx="47" cy="-189" rx="27" ry="18"/>
<text text-anchor="middle" x="47" y="-185.3" font-family="Times,serif" font-size="14.00">a</text>
</g>
<!-- csdl_alpha.src.graph.variable.Variable object at 0x74a32d7e57c0&#45;&gt;csdl_alpha.src.operations.add.Add object at 0x74a2e621a5b0 -->
<g id="edge4" class="edge">
<title>csdl_alpha.src.graph.variable.Variable object at 0x74a32d7e57c0&#45;&gt;csdl_alpha.src.operations.add.Add object at 0x74a2e621a5b0</title>
<path fill="none" stroke="black" d="M55.43,-171.8C60.22,-162.6 66.32,-150.88 71.74,-140.48"/>
<polygon fill="black" stroke="black" points="74.95,-141.89 76.46,-131.41 68.74,-138.66 74.95,-141.89"/>
</g>
<!-- csdl_alpha.src.graph.variable.Variable object at 0x74a2e621a7c0 -->
<g id="node7" class="node">
<title>csdl_alpha.src.graph.variable.Variable object at 0x74a2e621a7c0</title>
<ellipse fill="none" stroke="black" cx="85" cy="-42" rx="27" ry="18"/>
<text text-anchor="middle" x="85" y="-38.3" font-family="Times,serif" font-size="14.00">c</text>
</g>
<!-- csdl_alpha.src.operations.add.Add object at 0x74a2e621a5b0&#45;&gt;csdl_alpha.src.graph.variable.Variable object at 0x74a2e621a7c0 -->
<g id="edge6" class="edge">
<title>csdl_alpha.src.operations.add.Add object at 0x74a2e621a5b0&#45;&gt;csdl_alpha.src.graph.variable.Variable object at 0x74a2e621a7c0</title>
<path fill="none" stroke="black" d="M85,-95.7C85,-87.98 85,-78.71 85,-70.11"/>
<polygon fill="black" stroke="black" points="88.5,-70.1 85,-60.1 81.5,-70.1 88.5,-70.1"/>
</g>
</g>
</svg>
