<?xml version="1.0" encoding="UTF-8" standalone="no"?>
<!DOCTYPE svg PUBLIC "-//W3C//DTD SVG 1.1//EN"
 "http://www.w3.org/Graphics/SVG/1.1/DTD/svg11.dtd">
<!-- Generated by graphviz version 2.43.0 (0)
 -->
<!-- Title: G Pages: 1 -->
<svg width="194pt" height="398pt"
 viewBox="0.00 0.00 194.00 398.00" xmlns="http://www.w3.org/2000/svg" xmlns:xlink="http://www.w3.org/1999/xlink">
<g id="graph0" class="graph" transform="scale(1 1) rotate(0) translate(4 394)">
<title>G</title>
<polygon fill="white" stroke="transparent" points="-4,4 -4,-394 190,-394 190,4 -4,4"/>
<g id="clust1" class="cluster">
<title>cluster_global</title>
<polygon fill="none" stroke="black" points="8,-8 8,-382 178,-382 178,-8 8,-8"/>
<text text-anchor="middle" x="93" y="-366.8" font-family="Times,serif" font-size="14.00">global</text>
</g>
<g id="clust2" class="cluster">
<title>cluster_sample_namespace</title>
<polygon fill="none" stroke="black" points="16,-16 16,-163 170,-163 170,-16 16,-16"/>
<text text-anchor="middle" x="93" y="-147.8" font-family="Times,serif" font-size="14.00">sample_namespace</text>
</g>
<!-- csdl_alpha.src.operations.power.Power object at 0x773a4bdf87c0 -->
<g id="4" class="node">
<title>csdl_alpha.src.operations.power.Power object at 0x773a4bdf87c0</title>
<polygon fill="none" stroke="black" points="149.5,-279 88.5,-279 88.5,-243 149.5,-243 149.5,-279"/>
<text text-anchor="middle" x="119" y="-257.3" font-family="Times,serif" font-size="14.00">power</text>
</g>
<!-- csdl_alpha.src.graph.variable.Variable object at 0x773a4bdf8f70 -->
<g id="3" class="node">
<title>csdl_alpha.src.graph.variable.Variable object at 0x773a4bdf8f70</title>
<g id="a_3"><a xlink:title="2.250e+02, 2.250e+02, 2.250e+02, (1,)">
<ellipse fill="none" stroke="black" cx="119" cy="-189" rx="27" ry="18"/>
<text text-anchor="middle" x="119" y="-185.3" font-family="Times,serif" font-size="14.00">var</text>
</a>
</g>
</g>
<!-- csdl_alpha.src.operations.power.Power object at 0x773a4bdf87c0&#45;&gt;csdl_alpha.src.graph.variable.Variable object at 0x773a4bdf8f70 -->
<g id="edge1" class="edge">
<title>csdl_alpha.src.operations.power.Power object at 0x773a4bdf87c0&#45;&gt;csdl_alpha.src.graph.variable.Variable object at 0x773a4bdf8f70</title>
<path fill="none" stroke="black" d="M119,-242.7C119,-234.98 119,-225.71 119,-217.11"/>
<polygon fill="black" stroke="black" points="122.5,-217.1 119,-207.1 115.5,-217.1 122.5,-217.1"/>
</g>
<!-- csdl_alpha.src.operations.add.Add object at 0x773a4bdf8f40 -->
<g id="6" class="node">
<title>csdl_alpha.src.operations.add.Add object at 0x773a4bdf8f40</title>
<polygon fill="none" stroke="black" points="112,-132 58,-132 58,-96 112,-96 112,-132"/>
<text text-anchor="middle" x="85" y="-110.3" font-family="Times,serif" font-size="14.00">add</text>
</g>
<!-- csdl_alpha.src.graph.variable.Variable object at 0x773a4bdf8f70&#45;&gt;csdl_alpha.src.operations.add.Add object at 0x773a4bdf8f40 -->
<g id="edge5" class="edge">
<title>csdl_alpha.src.graph.variable.Variable object at 0x773a4bdf8f70&#45;&gt;csdl_alpha.src.operations.add.Add object at 0x773a4bdf8f40</title>
<path fill="none" stroke="black" d="M111.28,-171.44C107.13,-162.51 101.9,-151.29 97.21,-141.21"/>
<polygon fill="black" stroke="black" points="100.32,-139.59 92.92,-132.01 93.97,-142.55 100.32,-139.59"/>
</g>
<!-- csdl_alpha.src.graph.variable.Constant object at 0x773a4bdf8820 -->
<g id="2" class="node">
<title>csdl_alpha.src.graph.variable.Constant object at 0x773a4bdf8820</title>
<g id="a_2"><a xlink:title="2.000e+00, 2.000e+00, 2.000e+00, (1,)">
<ellipse fill="none" stroke="black" cx="129" cy="-333" rx="27" ry="18"/>
<text text-anchor="middle" x="129" y="-329.3" font-family="Times,serif" font-size="14.00">var</text>
</a>
</g>
</g>
<!-- csdl_alpha.src.graph.variable.Constant object at 0x773a4bdf8820&#45;&gt;csdl_alpha.src.operations.power.Power object at 0x773a4bdf87c0 -->
<g id="edge2" class="edge">
<title>csdl_alpha.src.graph.variable.Constant object at 0x773a4bdf8820&#45;&gt;csdl_alpha.src.operations.power.Power object at 0x773a4bdf87c0</title>
<path fill="none" stroke="black" d="M126.58,-315.05C125.48,-307.35 124.15,-298.03 122.91,-289.36"/>
<polygon fill="black" stroke="black" points="126.35,-288.68 121.47,-279.28 119.42,-289.67 126.35,-288.68"/>
</g>
<!-- csdl_alpha.src.graph.variable.Variable object at 0x773ad427d880 -->
<g id="1" class="node">
<title>csdl_alpha.src.graph.variable.Variable object at 0x773ad427d880</title>
<g id="a_1"><a xlink:title="1.500e+01, 1.500e+01, 1.500e+01, (1,)">
<ellipse fill="none" stroke="black" cx="57" cy="-333" rx="27" ry="18"/>
<text text-anchor="middle" x="57" y="-329.3" font-family="Times,serif" font-size="14.00">b</text>
</a>
</g>
</g>
<!-- csdl_alpha.src.graph.variable.Variable object at 0x773ad427d880&#45;&gt;csdl_alpha.src.operations.power.Power object at 0x773a4bdf87c0 -->
<g id="edge3" class="edge">
<title>csdl_alpha.src.graph.variable.Variable object at 0x773ad427d880&#45;&gt;csdl_alpha.src.operations.power.Power object at 0x773a4bdf87c0</title>
<path fill="none" stroke="black" d="M70.15,-317.15C78.02,-308.26 88.23,-296.74 97.27,-286.53"/>
<polygon fill="black" stroke="black" points="99.9,-288.85 103.91,-279.04 94.66,-284.21 99.9,-288.85"/>
</g>
<!-- csdl_alpha.src.graph.variable.Variable object at 0x773a4bdf8d30 -->
<g id="5" class="node">
<title>csdl_alpha.src.graph.variable.Variable object at 0x773a4bdf8d30</title>
<g id="a_5"><a xlink:title="2.300e+02, 2.300e+02, 2.300e+02, (1,)">
<ellipse fill="none" stroke="black" cx="85" cy="-42" rx="27" ry="18"/>
<text text-anchor="middle" x="85" y="-38.3" font-family="Times,serif" font-size="14.00">c</text>
</a>
</g>
</g>
<!-- csdl_alpha.src.operations.add.Add object at 0x773a4bdf8f40&#45;&gt;csdl_alpha.src.graph.variable.Variable object at 0x773a4bdf8d30 -->
<g id="edge4" class="edge">
<title>csdl_alpha.src.operations.add.Add object at 0x773a4bdf8f40&#45;&gt;csdl_alpha.src.graph.variable.Variable object at 0x773a4bdf8d30</title>
<path fill="none" stroke="black" d="M85,-95.7C85,-87.98 85,-78.71 85,-70.11"/>
<polygon fill="black" stroke="black" points="88.5,-70.1 85,-60.1 81.5,-70.1 88.5,-70.1"/>
</g>
<!-- csdl_alpha.src.graph.variable.Variable object at 0x773ad427da30 -->
<g id="0" class="node">
<title>csdl_alpha.src.graph.variable.Variable object at 0x773ad427da30</title>
<g id="a_0"><a xlink:title="5.000e+00, 5.000e+00, 5.000e+00, (1,)">
<ellipse fill="none" stroke="black" cx="47" cy="-189" rx="27" ry="18"/>
<text text-anchor="middle" x="47" y="-185.3" font-family="Times,serif" font-size="14.00">a</text>
</a>
</g>
</g>
<!-- csdl_alpha.src.graph.variable.Variable object at 0x773ad427da30&#45;&gt;csdl_alpha.src.operations.add.Add object at 0x773a4bdf8f40 -->
<g id="edge6" class="edge">
<title>csdl_alpha.src.graph.variable.Variable object at 0x773ad427da30&#45;&gt;csdl_alpha.src.operations.add.Add object at 0x773a4bdf8f40</title>
<path fill="none" stroke="black" d="M55.43,-171.8C60.12,-162.79 66.07,-151.37 71.39,-141.14"/>
<polygon fill="black" stroke="black" points="74.55,-142.66 76.06,-132.17 68.34,-139.43 74.55,-142.66"/>
</g>
</g>
</svg>
