<svg xmlns="http://www.w3.org/2000/svg" xmlns:xlink="http://www.w3.org/1999/xlink" xmlns:lucid="lucid" width="233" height="669"><g transform="translate(-1451 -395)" lucid:page-tab-id="rB5lKxPMEGx."><path d="M1360 302.18V266.5a6 6 0 0 1 6-6h668.16a6 6 0 0 1 6 6v35.68z" stroke="#3a414a" fill="#fff"/><path d="M2040.16 302.18v841.18a6 6 0 0 1-6 6H1366a6 6 0 0 1-6-6V302.18z" stroke="#3a414a" fill="none"/><use xlink:href="#a" transform="matrix(1,0,0,1,1360,260.5143777761442) translate(265.90123456790127 25.444444444444443)"/><path d="M1400 381.03v-35.67a6 6 0 0 1 6-6h308a6 6 0 0 1 6 6v35.67z" stroke="#3a414a" fill="#fff"/><path d="M1720 381.03v707.7a6 6 0 0 1-6 6h-308a6 6 0 0 1-6-6v-707.7z" stroke="#3a414a" fill="none"/><use xlink:href="#b" transform="matrix(1,0,0,1,1400,339.3620888856218) translate(129.16666666666669 25.444444444444443)"/><path d="M1540 449.36c0 16.57-13.43 30-30 30s-30-13.43-30-30 13.43-30 30-30 30 13.43 30 30z" stroke="#5e5e5e" stroke-width="4" fill="#ff8f8f"/><use xlink:href="#c" transform="matrix(1,0,0,1,1485,424.36208888562186) translate(19.444444444444443 30.27777777777778)"/><path d="M1590 589.36c0 16.57-13.43 30-30 30s-30-13.43-30-30 13.43-30 30-30 30 13.43 30 30z" stroke="#5e5e5e" stroke-width="4" fill="#ffdda6"/><use xlink:href="#d" transform="matrix(1,0,0,1,1535,564.3620888856217) translate(18.64814814814815 29.92222222222222)"/><path d="M1652.67 454.03c0 16.57-13.44 30-30 30-16.57 0-30-13.43-30-30s13.43-30 30-30c16.56 0 30 13.43 30 30z" stroke="#5e5e5e" stroke-width="4" fill="#ff8f8f"/><use xlink:href="#e" transform="matrix(1,0,0,1,1597.6666666666667,429.02875555228854) translate(18.82716049382716 30.27777777777778)"/><path d="M1622.67 486.53v29.17a6 6 0 0 1-6 6H1566a6 6 0 0 0-6 6v13.28" stroke="#3a414a" fill="none"/><path d="M1622.62 486.03l.52-.02v.54h-.95V486z" stroke="#3a414a" stroke-width=".05" fill="#3a414a"/><path d="M1560 555.74l-4.63-14.26h9.27z" stroke="#3a414a" fill="#3a414a"/><path d="M1510 481.86v31.5a6 6 0 0 0 6 6h38a6 6 0 0 1 6 6v15.62" stroke="#3a414a" fill="none"/><path d="M1509.95 481.37l.52-.02v.53h-.94v-.55z" stroke="#3a414a" stroke-width=".05" fill="#3a414a"/><path d="M1560 555.74l-4.63-14.26h9.27z" stroke="#3a414a" fill="#3a414a"/><path d="M1590 729.36c0 16.57-13.43 30-30 30s-30-13.43-30-30 13.43-30 30-30 30 13.43 30 30z" stroke="#5e5e5e" stroke-width="4" fill="#ff8f8f"/><use xlink:href="#f" transform="matrix(1,0,0,1,1535,704.362088885622) translate(19.444444444444443 30.27777777777778)"/><path d="M1560 621.86v59.12" stroke="#3a414a" fill="none"/><path d="M1559.95 621.37l.52-.02v.53h-.94v-.55z" stroke="#3a414a" stroke-width=".05" fill="#3a414a"/><path d="M1560 695.74l-4.63-14.26h9.27z" stroke="#3a414a" fill="#3a414a"/><path d="M1590 1009.36c0 16.57-13.43 30-30 30s-30-13.43-30-30 13.43-30 30-30 30 13.43 30 30z" stroke="#5e5e5e" stroke-width="4" fill="#ff8f8f"/><use xlink:href="#g" transform="matrix(1,0,0,1,1535,984.3620888856218) translate(19.444444444444443 30.27777777777778)"/><path d="M1590 869.36c0 16.57-13.43 30-30 30s-30-13.43-30-30 13.43-30 30-30 30 13.43 30 30z" stroke="#5e5e5e" stroke-width="4" fill="#ffdda6"/><use xlink:href="#h" transform="matrix(1,0,0,1,1535,844.3620888856218) translate(18.64814814814815 29.922222222222224)"/><path d="M1560 761.86v59.02" stroke="#3a414a" fill="none"/><path d="M1559.95 761.37l.52-.02v.53h-.94v-.55z" stroke="#3a414a" stroke-width=".05" fill="#3a414a"/><path d="M1560 835.64l-4.63-14.26h9.27z" stroke="#3a414a" fill="#3a414a"/><path d="M1510 481.86v301.5a6 6 0 0 0 6 6h38a6 6 0 0 1 6 6v25.62" stroke="#3a414a" fill="none"/><path d="M1509.95 481.37l.52-.02v.53h-.94v-.55z" stroke="#3a414a" stroke-width=".05" fill="#3a414a"/><path d="M1560 835.74l-4.63-14.26h9.27z" stroke="#3a414a" fill="#3a414a"/><path d="M1560 901.86v59.12" stroke="#3a414a" fill="none"/><path d="M1559.95 901.37l.52-.02v.53h-.94v-.55z" stroke="#3a414a" stroke-width=".05" fill="#3a414a"/><path d="M1560 975.74l-4.63-14.26h9.27z" stroke="#3a414a" fill="#3a414a"/><defs><path fill="#3a414a" d="M143 4C61 4 22-44 18-125c-5-107 100-154 193-111 17 8 29 25 37 43l-32 9c-13-25-37-40-76-40-61 0-88 39-88 99 0 61 29 100 91 101 35 0 62-11 79-27v-45h-74v-28h105v86C228-13 192 4 143 4" id="i"/><path fill="#3a414a" d="M114-163C36-179 61-72 57 0H25l-1-190h30c1 12-1 29 2 39 6-27 23-49 58-41v29" id="j"/><path fill="#3a414a" d="M141-36C126-15 110 5 73 4 37 3 15-17 15-53c-1-64 63-63 125-63 3-35-9-54-41-54-24 1-41 7-42 31l-33-3c5-37 33-52 76-52 45 0 72 20 72 64v82c-1 20 7 32 28 27v20c-31 9-61-2-59-35zM48-53c0 20 12 33 32 33 41-3 63-29 60-74-43 2-92-5-92 41" id="k"/><path fill="#3a414a" d="M115-194c55 1 70 41 70 98S169 2 115 4C84 4 66-9 55-30l1 105H24l-1-265h31l2 30c10-21 28-34 59-34zm-8 174c40 0 45-34 45-75s-6-73-45-74c-42 0-51 32-51 76 0 43 10 73 51 73" id="l"/><path fill="#3a414a" d="M106-169C34-169 62-67 57 0H25v-261h32l-1 103c12-21 28-36 61-36 89 0 53 116 60 194h-32v-121c2-32-8-49-39-48" id="m"/><path fill="#3a414a" d="M240 0l2-218c-23 76-54 145-80 218h-23L58-218 59 0H30v-248h44l77 211c21-75 51-140 76-211h43V0h-30" id="n"/><path fill="#3a414a" d="M117-194c89-4 53 116 60 194h-32v-121c0-31-8-49-39-48C34-167 62-67 57 0H25l-1-190h30c1 10-1 24 2 32 11-22 29-35 61-36" id="o"/><path fill="#3a414a" d="M177-190C167-65 218 103 67 71c-23-6-38-20-44-43l32-5c15 47 100 32 89-28v-30C133-14 115 1 83 1 29 1 15-40 15-95c0-56 16-97 71-98 29-1 48 16 59 35 1-10 0-23 2-32h30zM94-22c36 0 50-32 50-73 0-42-14-75-50-75-39 0-46 34-46 75s6 73 46 73" id="p"/><path fill="#3a414a" d="M100-194c63 0 86 42 84 106H49c0 40 14 67 53 68 26 1 43-12 49-29l28 8c-11 28-37 45-77 45C44 4 14-33 15-96c1-61 26-98 85-98zm52 81c6-60-76-77-97-28-3 7-6 17-6 28h103" id="q"/><g id="a"><use transform="matrix(0.06172839506172839,0,0,0.06172839506172839,0,0)" xlink:href="#i"/><use transform="matrix(0.06172839506172839,0,0,0.06172839506172839,17.28395061728395,0)" xlink:href="#j"/><use transform="matrix(0.06172839506172839,0,0,0.06172839506172839,24.629629629629626,0)" xlink:href="#k"/><use transform="matrix(0.06172839506172839,0,0,0.06172839506172839,36.9753086419753,0)" xlink:href="#l"/><use transform="matrix(0.06172839506172839,0,0,0.06172839506172839,49.32098765432098,0)" xlink:href="#m"/><use transform="matrix(0.06172839506172839,0,0,0.06172839506172839,61.66666666666666,0)" xlink:href="#n"/><use transform="matrix(0.06172839506172839,0,0,0.06172839506172839,80.12345679012344,0)" xlink:href="#k"/><use transform="matrix(0.06172839506172839,0,0,0.06172839506172839,92.46913580246913,0)" xlink:href="#o"/><use transform="matrix(0.06172839506172839,0,0,0.06172839506172839,104.81481481481481,0)" xlink:href="#k"/><use transform="matrix(0.06172839506172839,0,0,0.06172839506172839,117.1604938271605,0)" xlink:href="#p"/><use transform="matrix(0.06172839506172839,0,0,0.06172839506172839,129.50617283950618,0)" xlink:href="#q"/><use transform="matrix(0.06172839506172839,0,0,0.06172839506172839,141.85185185185185,0)" xlink:href="#j"/></g><g id="b"><use transform="matrix(0.06172839506172839,0,0,0.06172839506172839,0,0)" xlink:href="#i"/><use transform="matrix(0.06172839506172839,0,0,0.06172839506172839,17.28395061728395,0)" xlink:href="#j"/><use transform="matrix(0.06172839506172839,0,0,0.06172839506172839,24.629629629629626,0)" xlink:href="#k"/><use transform="matrix(0.06172839506172839,0,0,0.06172839506172839,36.9753086419753,0)" xlink:href="#l"/><use transform="matrix(0.06172839506172839,0,0,0.06172839506172839,49.32098765432098,0)" xlink:href="#m"/></g><path fill="#3a414a" d="M141 0L90-78 38 0H4l68-98-65-92h35l48 74 47-74h35l-64 92 68 98h-35" id="r"/><use transform="matrix(0.06172839506172839,0,0,0.06172839506172839,0,0)" xlink:href="#r" id="c"/><path d="M25-58l62-62-62-62 19-18 61 62 62-62 18 19-61 61 61 62-17 18-63-62-62 62" id="s"/><use transform="matrix(0.06049382716049382,0,0,0.06049382716049382,0,0)" xlink:href="#s" id="d"/><path fill="#3a414a" d="M101-251c82-7 93 87 43 132L82-64C71-53 59-42 53-27h129V0H18c2-99 128-94 128-182 0-28-16-43-45-43s-46 15-49 41l-32-3c6-41 34-60 81-64" id="t"/><use transform="matrix(0.06172839506172839,0,0,0.06172839506172839,0,0)" xlink:href="#t" id="e"/><path fill="#3a414a" d="M179-190L93 31C79 59 56 82 12 73V49c39 6 53-20 64-50L1-190h34L92-34l54-156h33" id="u"/><use transform="matrix(0.06172839506172839,0,0,0.06172839506172839,0,0)" xlink:href="#u" id="f"/><path fill="#3a414a" d="M9 0v-24l116-142H16v-24h144v24L44-24h123V0H9" id="v"/><use transform="matrix(0.06172839506172839,0,0,0.06172839506172839,0,0)" xlink:href="#v" id="g"/><use transform="matrix(0.06049382716049383,0,0,0.06049382716049383,0,0)" xlink:href="#s" id="h"/></defs></g></svg>