<svg xmlns="http://www.w3.org/2000/svg" xmlns:xlink="http://www.w3.org/1999/xlink" xmlns:lucid="lucid" width="1868.97" height="700.51"><g transform="translate(1924.4852813742386 -927.0497048516269)" lucid:page-tab-id="YX9n7Z~t2MbC"><g filter="url(#a)"><path d="M-1900 957.53a6 6 0 0 1 6-6H-86a6 6 0 0 1 6 6v639.54a6 6 0 0 1-6 6h-1808a6 6 0 0 1-6-6z" stroke="#de5f85" stroke-width="2" fill="#f2f3f5"/><use xlink:href="#b" transform="matrix(1,0,0,1,-1880,971.5349862258654) translate(0 23.46666666666666)"/></g><g filter="url(#c)"><path d="M-1860 1049.07a6 6 0 0 1 6-6h668a6 6 0 0 1 6 6v491.07a6 6 0 0 1-6 6h-668a6 6 0 0 1-6-6z" stroke="#b5d6ff" stroke-width="2" fill="#cfe4ff"/><use xlink:href="#d" transform="matrix(1,0,0,1,-1840,1063.0699724517308) translate(0 21.688888888888883)"/></g><g filter="url(#e)"><path d="M-1580 1129.07a6 6 0 0 1 6-6h148a6 6 0 0 1 6 6v56.47a6 6 0 0 1-6 6h-148a6 6 0 0 1-6-6z" stroke="#eec4ff" stroke-width="2" fill="#fbf0ff"/><use xlink:href="#f" transform="matrix(1,0,0,1,-1560,1143.0699724517308) translate(19.10555555555557 19.94583333333333)"/><use xlink:href="#g" transform="matrix(1,0,0,1,-1560,1143.0699724517308) translate(88.30185185185184 19.94583333333333)"/></g><g filter="url(#e)"><path d="M-1700 1269.07a6 6 0 0 1 6-6h148a6 6 0 0 1 6 6v56.47a6 6 0 0 1-6 6h-148a6 6 0 0 1-6-6z" stroke="#eec4ff" stroke-width="2" fill="#fbf0ff"/><use xlink:href="#f" transform="matrix(1,0,0,1,-1680,1283.0699724517308) translate(19.10555555555557 19.94583333333333)"/><use xlink:href="#h" transform="matrix(1,0,0,1,-1680,1283.0699724517308) translate(88.30185185185184 19.94583333333333)"/></g><g filter="url(#e)"><path d="M-1460 1269.07a6 6 0 0 1 6-6h148a6 6 0 0 1 6 6v56.47a6 6 0 0 1-6 6h-148a6 6 0 0 1-6-6z" stroke="#eec4ff" stroke-width="2" fill="#fbf0ff"/><use xlink:href="#f" transform="matrix(1,0,0,1,-1440,1283.0699724517308) translate(19.10555555555557 19.94583333333333)"/><use xlink:href="#i" transform="matrix(1,0,0,1,-1440,1283.0699724517308) translate(88.30185185185184 19.94583333333333)"/></g><g filter="url(#e)"><path d="M-1820 1400.6a6 6 0 0 1 6-6h148a6 6 0 0 1 6 6v56.47a6 6 0 0 1-6 6h-148a6 6 0 0 1-6-6z" stroke="#eec4ff" stroke-width="2" fill="#fbf0ff"/><use xlink:href="#f" transform="matrix(1,0,0,1,-1800,1414.6049586775962) translate(19.10555555555557 19.94583333333333)"/><use xlink:href="#j" transform="matrix(1,0,0,1,-1800,1414.6049586775962) translate(88.30185185185184 19.94583333333333)"/></g><g filter="url(#e)"><path d="M-1580 1400.6a6 6 0 0 1 6-6h148a6 6 0 0 1 6 6v56.47a6 6 0 0 1-6 6h-148a6 6 0 0 1-6-6z" stroke="#eec4ff" stroke-width="2" fill="#fbf0ff"/><use xlink:href="#f" transform="matrix(1,0,0,1,-1560,1414.6049586775962) translate(19.10555555555557 19.94583333333333)"/><use xlink:href="#k" transform="matrix(1,0,0,1,-1560,1414.6049586775962) translate(88.30185185185184 19.94583333333333)"/></g><path d="M-1500 1193.04v28.26a6 6 0 0 1-6 6h-108a6 6 0 0 0-6 6v12.4" stroke="#3a414a" fill="none"/><path d="M-1499.53 1193.05h-.94v-.5h.94z" stroke="#3a414a" stroke-width=".05" fill="#3a414a"/><path d="M-1620 1260.45l-4.63-14.26h9.27z" stroke="#3a414a" fill="#3a414a"/><path d="M-1500 1193.04v28.26a6 6 0 0 0 6 6h108a6 6 0 0 1 6 6v12.4" stroke="#3a414a" fill="none"/><path d="M-1499.53 1193.05h-.94v-.5h.94z" stroke="#3a414a" stroke-width=".05" fill="#3a414a"/><path d="M-1380 1260.45l-4.63-14.26h9.27z" stroke="#3a414a" fill="#3a414a"/><path d="M-1620 1333.04v24.03a6 6 0 0 1-6 6h-109.07a6 6 0 0 0-6 6v8.15" stroke="#3a414a" fill="none"/><path d="M-1619.53 1333.05h-.94v-.5h.94z" stroke="#3a414a" stroke-width=".05" fill="#3a414a"/><path d="M-1741.07 1392l-4.63-14.28h9.27z" stroke="#3a414a" fill="#3a414a"/><path d="M-1620 1333.04v24.03a6 6 0 0 0 6 6h108a6 6 0 0 1 6 6v8.15" stroke="#3a414a" fill="none"/><path d="M-1619.53 1333.05h-.94v-.5h.94z" stroke="#3a414a" stroke-width=".05" fill="#3a414a"/><path d="M-1500 1392l-4.63-14.28h9.27z" stroke="#3a414a" fill="#3a414a"/><g filter="url(#c)"><path d="M-1140 1049.07a6 6 0 0 1 6-6h668a6 6 0 0 1 6 6v491.07a6 6 0 0 1-6 6h-668a6 6 0 0 1-6-6z" stroke="#b5d6ff" stroke-width="2" fill="#cfe4ff"/><use xlink:href="#l" transform="matrix(1,0,0,1,-1120,1063.069972451731) translate(0 21.688888888888883)"/></g><g filter="url(#e)"><path d="M-880 1120.6a6 6 0 0 1 6-6h148a6 6 0 0 1 6 6v56.47a6 6 0 0 1-6 6h-148a6 6 0 0 1-6-6z" stroke="#eec4ff" stroke-width="2" fill="#f4d9ff"/><use xlink:href="#m" transform="matrix(1,0,0,1,-860,1134.6049586775964) translate(19.76666666666668 19.94583333333333)"/><use xlink:href="#n" transform="matrix(1,0,0,1,-860,1134.6049586775964) translate(87.64074074074072 19.94583333333333)"/></g><g filter="url(#e)"><path d="M-1100 1272.14a6 6 0 0 1 6-6h148a6 6 0 0 1 6 6v56.46a6 6 0 0 1-6 6h-148a6 6 0 0 1-6-6z" stroke="#eec4ff" stroke-width="2" fill="#f4d9ff"/><use xlink:href="#m" transform="matrix(1,0,0,1,-1080,1286.1399449034618) translate(19.76666666666668 19.94583333333333)"/><use xlink:href="#o" transform="matrix(1,0,0,1,-1080,1286.1399449034618) translate(87.64074074074072 19.94583333333333)"/></g><g filter="url(#e)"><path d="M-880 1272.14a6 6 0 0 1 6-6h148a6 6 0 0 1 6 6v56.46a6 6 0 0 1-6 6h-148a6 6 0 0 1-6-6z" stroke="#eec4ff" stroke-width="2" fill="#f4d9ff"/><use xlink:href="#m" transform="matrix(1,0,0,1,-860,1286.1399449034618) translate(20.396296296296313 19.94583333333333)"/><use xlink:href="#p" transform="matrix(1,0,0,1,-860,1286.1399449034618) translate(88.27037037037036 19.94583333333333)"/></g><g filter="url(#e)"><path d="M-880 1423.67a6 6 0 0 1 6-6h148a6 6 0 0 1 6 6v56.47a6 6 0 0 1-6 6h-148a6 6 0 0 1-6-6z" stroke="#eec4ff" stroke-width="2" fill="#f4d9ff"/><use xlink:href="#m" transform="matrix(1,0,0,1,-860,1437.6749311293274) translate(19.76666666666668 19.94583333333333)"/><use xlink:href="#q" transform="matrix(1,0,0,1,-860,1437.6749311293274) translate(87.64074074074072 19.94583333333333)"/></g><path d="M-800 1184.57v34.04a6 6 0 0 1-6 6h-208a6 6 0 0 0-6 6v18.16" stroke="#3a414a" fill="none"/><path d="M-799.52 1184.58h-.96v-.5h.96z" stroke="#3a414a" stroke-width=".05" fill="#3a414a"/><path d="M-1020 1263.52l-4.63-14.26h9.27z" stroke="#3a414a" fill="#3a414a"/><path d="M-800 1184.57v64.2" stroke="#3a414a" fill="none"/><path d="M-799.52 1184.58h-.96v-.5h.96z" stroke="#3a414a" stroke-width=".05" fill="#3a414a"/><path d="M-800 1263.52l-4.63-14.26h9.26z" stroke="#3a414a" fill="#3a414a"/><path d="M-800 1336.1v64.2" stroke="#3a414a" fill="none"/><path d="M-799.52 1336.12h-.96v-.5h.96z" stroke="#3a414a" stroke-width=".05" fill="#3a414a"/><path d="M-800 1415.06l-4.63-14.27h9.26z" stroke="#3a414a" fill="#3a414a"/><g filter="url(#e)"><path d="M-660 1272.14a6 6 0 0 1 6-6h148a6 6 0 0 1 6 6v56.46a6 6 0 0 1-6 6h-148a6 6 0 0 1-6-6z" stroke="#eec4ff" stroke-width="2" fill="#f4d9ff"/><use xlink:href="#m" transform="matrix(1,0,0,1,-640,1286.1399449034618) translate(19.76666666666668 19.94583333333333)"/><use xlink:href="#r" transform="matrix(1,0,0,1,-640,1286.1399449034618) translate(87.64074074074072 19.94583333333333)"/></g><path d="M-800 1184.57v34.04a6 6 0 0 0 6 6h208a6 6 0 0 1 6 6v18.16" stroke="#3a414a" fill="none"/><path d="M-799.52 1184.58h-.96v-.5h.96z" stroke="#3a414a" stroke-width=".05" fill="#3a414a"/><path d="M-580 1263.52l-4.63-14.26h9.26z" stroke="#3a414a" fill="#3a414a"/><path d="M-380 1106a6 6 0 0 1 6-6h248a6 6 0 0 1 6 6v113.95a6 6 0 0 1-6 6h-248a6 6 0 0 1-6-6z" stroke="#8ee895" stroke-width="2" fill="#c3f7c8"/><use xlink:href="#s" transform="matrix(1,0,0,1,-380,1100) translate(8.01 22.787777777777777)"/><g filter="url(#t)"><path d="M-330 1146a6 6 0 0 1 6-6h148a6 6 0 0 1 6 6v52.8a6 6 0 0 1-6 6h-148a6 6 0 0 1-6-6z" stroke="#eec4ff" stroke-width="2" fill="#fbf0ff"/><use xlink:href="#f" transform="matrix(1,0,0,1,-310,1160) translate(19.10555555555557 19.69583333333333)"/><use xlink:href="#i" transform="matrix(1,0,0,1,-310,1160) translate(88.30185185185184 19.69583333333333)"/></g><path d="M-380 1326a6 6 0 0 1 6-6h248a6 6 0 0 1 6 6v113.95a6 6 0 0 1-6 6h-248a6 6 0 0 1-6-6z" stroke="#8ee895" stroke-width="2" fill="#c3f7c8"/><use xlink:href="#u" transform="matrix(1,0,0,1,-380,1320) translate(8.01 22.787777777777777)"/><path d="M-380 1326a6 6 0 0 1 6-6h248a6 6 0 0 1 6 6v113.95a6 6 0 0 1-6 6h-248a6 6 0 0 1-6-6z" stroke="#8ee895" stroke-width="2" fill="#c3f7c8"/><use xlink:href="#u" transform="matrix(1,0,0,1,-380,1320) translate(8.01 22.787777777777777)"/><g filter="url(#e)"><path d="M-330 1368.28a6 6 0 0 1 6-6h148a6 6 0 0 1 6 6v56.47a6 6 0 0 1-6 6h-148a6 6 0 0 1-6-6z" stroke="#eec4ff" stroke-width="2" fill="#f4d9ff"/><use xlink:href="#m" transform="matrix(1,0,0,1,-310,1382.2805152259145) translate(19.76666666666668 19.94583333333333)"/><use xlink:href="#r" transform="matrix(1,0,0,1,-310,1382.2805152259145) translate(87.64074074074072 19.94583333333333)"/></g><defs><path fill="#de5f85" d="M240-174c0 40-23 61-54 70L253 0h-59l-57-94H76V0H24v-248c93 4 217-23 216 74zM76-134c48-2 112 12 112-38 0-48-66-32-112-35v73" id="v"/><path fill="#de5f85" d="M185-48c-13 30-37 53-82 52C43 2 14-33 14-96s30-98 90-98c62 0 83 45 84 108H66c0 31 8 55 39 56 18 0 30-7 34-22zm-45-69c5-46-57-63-70-21-2 6-4 13-4 21h74" id="w"/><path fill="#de5f85" d="M190-63c-7 42-38 67-86 67-59 0-84-38-90-98-12-110 154-137 174-36l-49 2c-2-19-15-32-35-32-30 0-35 28-38 64-6 74 65 87 74 30" id="x"/><path fill="#de5f85" d="M110-194c64 0 96 36 96 99 0 64-35 99-97 99-61 0-95-36-95-99 0-62 34-99 96-99zm-1 164c35 0 45-28 45-65 0-40-10-65-43-65-34 0-45 26-45 65 0 36 10 65 43 65" id="y"/><path fill="#de5f85" d="M135-150c-39-12-60 13-60 57V0H25l-1-190h47c2 13-1 29 3 40 6-28 27-53 61-41v41" id="z"/><path fill="#de5f85" d="M88-194c31-1 46 15 58 34l-1-101h50l1 261h-48c-2-10 0-23-3-31C134-8 116 4 84 4 32 4 16-41 15-95c0-56 19-97 73-99zm17 164c33 0 40-30 41-66 1-37-9-64-41-64s-38 30-39 65c0 43 13 65 39 65" id="A"/><g id="b"><use transform="matrix(0.08148148148148146,0,0,0.08148148148148146,0,0)" xlink:href="#v"/><use transform="matrix(0.08148148148148146,0,0,0.08148148148148146,21.103703703703697,0)" xlink:href="#w"/><use transform="matrix(0.08148148148148146,0,0,0.08148148148148146,37.39999999999999,0)" xlink:href="#x"/><use transform="matrix(0.08148148148148146,0,0,0.08148148148148146,53.69629629629628,0)" xlink:href="#y"/><use transform="matrix(0.08148148148148146,0,0,0.08148148148148146,71.54074074074072,0)" xlink:href="#z"/><use transform="matrix(0.08148148148148146,0,0,0.08148148148148146,82.94814814814812,0)" xlink:href="#A"/><use transform="matrix(0.08148148148148146,0,0,0.08148148148148146,100.79259259259257,0)" xlink:href="#w"/><use transform="matrix(0.08148148148148146,0,0,0.08148148148148146,117.08888888888886,0)" xlink:href="#z"/></g><filter id="a" filterUnits="objectBoundingBox" x="0" y="0" width="1.01" height="1.03"><feOffset result="offOut" in="SourceAlpha" dx="8.49" dy="8.49"/><feGaussianBlur result="blurOut" in="offOut" stdDeviation="5"/><feColorMatrix result="colorOut" in="blurOut" values="0 0 0 0 0 0 0 0 0 0 0 0 0 0 0 0 0 0 0.5019607843137255 0"/><feBlend in="SourceGraphic" in2="colorOut"/></filter><path fill="#282c33" d="M177-190C167-65 218 103 67 71c-23-6-38-20-44-43l32-5c15 47 100 32 89-28v-30C133-14 115 1 83 1 29 1 15-40 15-95c0-56 16-97 71-98 29-1 48 16 59 35 1-10 0-23 2-32h30zM94-22c36 0 50-32 50-73 0-42-14-75-50-75-39 0-46 34-46 75s6 73 46 73" id="B"/><path fill="#282c33" d="M114-163C36-179 61-72 57 0H25l-1-190h30c1 12-1 29 2 39 6-27 23-49 58-41v29" id="C"/><path fill="#282c33" d="M141-36C126-15 110 5 73 4 37 3 15-17 15-53c-1-64 63-63 125-63 3-35-9-54-41-54-24 1-41 7-42 31l-33-3c5-37 33-52 76-52 45 0 72 20 72 64v82c-1 20 7 32 28 27v20c-31 9-61-2-59-35zM48-53c0 20 12 33 32 33 41-3 63-29 60-74-43 2-92-5-92 41" id="D"/><path fill="#282c33" d="M115-194c55 1 70 41 70 98S169 2 115 4C84 4 66-9 55-30l1 105H24l-1-265h31l2 30c10-21 28-34 59-34zm-8 174c40 0 45-34 45-75s-6-73-45-74c-42 0-51 32-51 76 0 43 10 73 51 73" id="E"/><path fill="#282c33" d="M106-169C34-169 62-67 57 0H25v-261h32l-1 103c12-21 28-36 61-36 89 0 53 116 60 194h-32v-121c2-32-8-49-39-48" id="F"/><path fill="#282c33" d="M-5 72V49h209v23H-5" id="G"/><path fill="#282c33" d="M59-47c-2 24 18 29 38 22v24C64 9 27 4 27-40v-127H5v-23h24l9-43h21v43h35v23H59v120" id="H"/><path fill="#282c33" d="M100-194c63 0 86 42 84 106H49c0 40 14 67 53 68 26 1 43-12 49-29l28 8c-11 28-37 45-77 45C44 4 14-33 15-96c1-61 26-98 85-98zm52 81c6-60-76-77-97-28-3 7-6 17-6 28h103" id="I"/><g id="d"><use transform="matrix(0.07530864197530862,0,0,0.07530864197530862,0,0)" xlink:href="#B"/><use transform="matrix(0.07530864197530862,0,0,0.07530864197530862,15.061728395061724,0)" xlink:href="#C"/><use transform="matrix(0.07530864197530862,0,0,0.07530864197530862,24.02345679012345,0)" xlink:href="#D"/><use transform="matrix(0.07530864197530862,0,0,0.07530864197530862,39.085185185185175,0)" xlink:href="#E"/><use transform="matrix(0.07530864197530862,0,0,0.07530864197530862,54.146913580246895,0)" xlink:href="#F"/><use transform="matrix(0.07530864197530862,0,0,0.07530864197530862,69.20864197530862,0)" xlink:href="#G"/><use transform="matrix(0.07530864197530862,0,0,0.07530864197530862,84.27037037037034,0)" xlink:href="#H"/><use transform="matrix(0.07530864197530862,0,0,0.07530864197530862,91.8012345679012,0)" xlink:href="#C"/><use transform="matrix(0.07530864197530862,0,0,0.07530864197530862,100.76296296296293,0)" xlink:href="#I"/><use transform="matrix(0.07530864197530862,0,0,0.07530864197530862,115.82469135802467,0)" xlink:href="#I"/></g><filter id="c" filterUnits="objectBoundingBox" x="0" y="0" width="1.03" height="1.04"><feOffset result="offOut" in="SourceAlpha" dx="8.49" dy="8.49"/><feGaussianBlur result="blurOut" in="offOut" stdDeviation="5"/><feColorMatrix result="colorOut" in="blurOut" values="0 0 0 0 0 0 0 0 0 0 0 0 0 0 0 0 0 0 0.5019607843137255 0"/><feBlend in="SourceGraphic" in2="colorOut"/></filter><path fill="#282c33" d="M143 4C61 4 22-44 18-125c-5-107 100-154 193-111 17 8 29 25 37 43l-32 9c-13-25-37-40-76-40-61 0-88 39-88 99 0 61 29 100 91 101 35 0 62-11 79-27v-45h-74v-28h105v86C228-13 192 4 143 4" id="J"/><g id="f"><use transform="matrix(0.06296296296296294,0,0,0.06296296296296294,0,0)" xlink:href="#J"/><use transform="matrix(0.06296296296296294,0,0,0.06296296296296294,17.629629629629623,0)" xlink:href="#C"/><use transform="matrix(0.06296296296296294,0,0,0.06296296296296294,25.122222222222213,0)" xlink:href="#D"/><use transform="matrix(0.06296296296296294,0,0,0.06296296296296294,37.7148148148148,0)" xlink:href="#E"/><use transform="matrix(0.06296296296296294,0,0,0.06296296296296294,50.30740740740739,0)" xlink:href="#F"/></g><path fill="#282c33" d="M27 0v-27h64v-190l-56 39v-29l58-41h29v221h61V0H27" id="K"/><use transform="matrix(0.06296296296296294,0,0,0.06296296296296294,0,0)" xlink:href="#K" id="g"/><filter id="e" filterUnits="objectBoundingBox" x="-.04" y="-.1" width="1.13" height="1.29"><feOffset result="offOut" in="SourceAlpha" dx="2.83" dy="2.83"/><feGaussianBlur result="blurOut" in="offOut" stdDeviation="5"/><feColorMatrix result="colorOut" in="blurOut" values="0 0 0 0 0 0 0 0 0 0 0 0 0 0 0 0 0 0 0.5019607843137255 0"/><feBlend in="SourceGraphic" in2="colorOut"/></filter><path fill="#282c33" d="M101-251c82-7 93 87 43 132L82-64C71-53 59-42 53-27h129V0H18c2-99 128-94 128-182 0-28-16-43-45-43s-46 15-49 41l-32-3c6-41 34-60 81-64" id="L"/><use transform="matrix(0.06296296296296294,0,0,0.06296296296296294,0,0)" xlink:href="#L" id="h"/><path fill="#282c33" d="M54-142c48-35 137-8 131 61C196 18 31 33 14-55l32-4c7 23 22 37 52 37 35-1 51-22 54-58 4-55-73-65-99-34H22l8-134h141v27H59" id="M"/><use transform="matrix(0.06296296296296294,0,0,0.06296296296296294,0,0)" xlink:href="#M" id="i"/><path fill="#282c33" d="M126-127c33 6 58 20 58 59 0 88-139 92-164 29-3-8-5-16-6-25l32-3c6 27 21 44 54 44 32 0 52-15 52-46 0-38-36-46-79-43v-28c39 1 72-4 72-42 0-27-17-43-46-43-28 0-47 15-49 41l-32-3c6-42 35-63 81-64 48-1 79 21 79 65 0 36-21 52-52 59" id="N"/><use transform="matrix(0.06296296296296294,0,0,0.06296296296296294,0,0)" xlink:href="#N" id="j"/><path fill="#282c33" d="M155-56V0h-30v-56H8v-25l114-167h33v167h35v25h-35zm-30-156c-27 46-58 90-88 131h88v-131" id="O"/><use transform="matrix(0.06296296296296294,0,0,0.06296296296296294,0,0)" xlink:href="#O" id="k"/><path fill="#282c33" d="M117-194c89-4 53 116 60 194h-32v-121c0-31-8-49-39-48C34-167 62-67 57 0H25l-1-190h30c1 10-1 24 2 32 11-22 29-35 61-36" id="P"/><path fill="#282c33" d="M210-169c-67 3-38 105-44 169h-31v-121c0-29-5-50-35-48C34-165 62-65 56 0H25l-1-190h30c1 10-1 24 2 32 10-44 99-50 107 0 11-21 27-35 58-36 85-2 47 119 55 194h-31v-121c0-29-5-49-35-48" id="Q"/><path fill="#282c33" d="M135-143c-3-34-86-38-87 0 15 53 115 12 119 90S17 21 10-45l28-5c4 36 97 45 98 0-10-56-113-15-118-90-4-57 82-63 122-42 12 7 21 19 24 35" id="R"/><path fill="#282c33" d="M96-169c-40 0-48 33-48 73s9 75 48 75c24 0 41-14 43-38l32 2c-6 37-31 61-74 61-59 0-76-41-82-99-10-93 101-131 147-64 4 7 5 14 7 22l-32 3c-4-21-16-35-41-35" id="S"/><g id="l"><use transform="matrix(0.07530864197530862,0,0,0.07530864197530862,0,0)" xlink:href="#P"/><use transform="matrix(0.07530864197530862,0,0,0.07530864197530862,15.061728395061724,0)" xlink:href="#D"/><use transform="matrix(0.07530864197530862,0,0,0.07530864197530862,30.12345679012345,0)" xlink:href="#Q"/><use transform="matrix(0.07530864197530862,0,0,0.07530864197530862,52.640740740740725,0)" xlink:href="#I"/><use transform="matrix(0.07530864197530862,0,0,0.07530864197530862,67.70246913580245,0)" xlink:href="#R"/><use transform="matrix(0.07530864197530862,0,0,0.07530864197530862,81.258024691358,0)" xlink:href="#E"/><use transform="matrix(0.07530864197530862,0,0,0.07530864197530862,96.31975308641972,0)" xlink:href="#D"/><use transform="matrix(0.07530864197530862,0,0,0.07530864197530862,111.38148148148144,0)" xlink:href="#S"/><use transform="matrix(0.07530864197530862,0,0,0.07530864197530862,124.937037037037,0)" xlink:href="#I"/><use transform="matrix(0.07530864197530862,0,0,0.07530864197530862,139.99876543209874,0)" xlink:href="#G"/><use transform="matrix(0.07530864197530862,0,0,0.07530864197530862,155.06049382716046,0)" xlink:href="#H"/><use transform="matrix(0.07530864197530862,0,0,0.07530864197530862,162.59135802469132,0)" xlink:href="#C"/><use transform="matrix(0.07530864197530862,0,0,0.07530864197530862,171.55308641975304,0)" xlink:href="#I"/><use transform="matrix(0.07530864197530862,0,0,0.07530864197530862,186.61481481481476,0)" xlink:href="#I"/></g><path fill="#282c33" d="M240 0l2-218c-23 76-54 145-80 218h-23L58-218 59 0H30v-248h44l77 211c21-75 51-140 76-211h43V0h-30" id="T"/><path fill="#282c33" d="M100-194c62-1 85 37 85 99 1 63-27 99-86 99S16-35 15-95c0-66 28-99 85-99zM99-20c44 1 53-31 53-75 0-43-8-75-51-75s-53 32-53 75 10 74 51 75" id="U"/><path fill="#282c33" d="M85-194c31 0 48 13 60 33l-1-100h32l1 261h-30c-2-10 0-23-3-31C134-8 116 4 85 4 32 4 16-35 15-94c0-66 23-100 70-100zm9 24c-40 0-46 34-46 75 0 40 6 74 45 74 42 0 51-32 51-76 0-42-9-74-50-73" id="V"/><path fill="#282c33" d="M24 0v-261h32V0H24" id="W"/><g id="m"><use transform="matrix(0.06296296296296294,0,0,0.06296296296296294,0,0)" xlink:href="#T"/><use transform="matrix(0.06296296296296294,0,0,0.06296296296296294,18.82592592592592,0)" xlink:href="#U"/><use transform="matrix(0.06296296296296294,0,0,0.06296296296296294,31.418518518518507,0)" xlink:href="#V"/><use transform="matrix(0.06296296296296294,0,0,0.06296296296296294,44.01111111111109,0)" xlink:href="#I"/><use transform="matrix(0.06296296296296294,0,0,0.06296296296296294,56.60370370370368,0)" xlink:href="#W"/></g><use transform="matrix(0.06296296296296294,0,0,0.06296296296296294,0,0)" xlink:href="#D" id="n"/><path fill="#282c33" d="M115-194c53 0 69 39 70 98 0 66-23 100-70 100C84 3 66-7 56-30L54 0H23l1-261h32v101c10-23 28-34 59-34zm-8 174c40 0 45-34 45-75 0-40-5-75-45-74-42 0-51 32-51 76 0 43 10 73 51 73" id="X"/><use transform="matrix(0.06296296296296294,0,0,0.06296296296296294,0,0)" xlink:href="#X" id="o"/><use transform="matrix(0.06296296296296294,0,0,0.06296296296296294,0,0)" xlink:href="#S" id="p"/><use transform="matrix(0.06296296296296294,0,0,0.06296296296296294,0,0)" xlink:href="#V" id="q"/><use transform="matrix(0.06296296296296294,0,0,0.06296296296296294,0,0)" xlink:href="#I" id="r"/><path fill="#3a414a" d="M141-36C126-15 110 5 73 4 37 3 15-17 15-53c-1-64 63-63 125-63 3-35-9-54-41-54-24 1-41 7-42 31l-33-3c5-37 33-52 76-52 45 0 72 20 72 64v82c-1 20 7 32 28 27v20c-31 9-61-2-59-35zM48-53c0 20 12 33 32 33 41-3 63-29 60-74-43 2-92-5-92 41" id="Y"/><path fill="#3a414a" d="M96-169c-40 0-48 33-48 73s9 75 48 75c24 0 41-14 43-38l32 2c-6 37-31 61-74 61-59 0-76-41-82-99-10-93 101-131 147-64 4 7 5 14 7 22l-32 3c-4-21-16-35-41-35" id="Z"/><path fill="#3a414a" d="M59-47c-2 24 18 29 38 22v24C64 9 27 4 27-40v-127H5v-23h24l9-43h21v43h35v23H59v120" id="aa"/><path fill="#3a414a" d="M24-231v-30h32v30H24zM24 0v-190h32V0H24" id="ab"/><path fill="#3a414a" d="M108 0H70L1-190h34L89-25l56-165h34" id="ac"/><path fill="#3a414a" d="M100-194c63 0 86 42 84 106H49c0 40 14 67 53 68 26 1 43-12 49-29l28 8c-11 28-37 45-77 45C44 4 14-33 15-96c1-61 26-98 85-98zm52 81c6-60-76-77-97-28-3 7-6 17-6 28h103" id="ad"/><path fill="#3a414a" d="M-5 72V49h209v23H-5" id="ae"/><path fill="#3a414a" d="M177-190C167-65 218 103 67 71c-23-6-38-20-44-43l32-5c15 47 100 32 89-28v-30C133-14 115 1 83 1 29 1 15-40 15-95c0-56 16-97 71-98 29-1 48 16 59 35 1-10 0-23 2-32h30zM94-22c36 0 50-32 50-73 0-42-14-75-50-75-39 0-46 34-46 75s6 73 46 73" id="af"/><path fill="#3a414a" d="M114-163C36-179 61-72 57 0H25l-1-190h30c1 12-1 29 2 39 6-27 23-49 58-41v29" id="ag"/><path fill="#3a414a" d="M115-194c55 1 70 41 70 98S169 2 115 4C84 4 66-9 55-30l1 105H24l-1-265h31l2 30c10-21 28-34 59-34zm-8 174c40 0 45-34 45-75s-6-73-45-74c-42 0-51 32-51 76 0 43 10 73 51 73" id="ah"/><path fill="#3a414a" d="M106-169C34-169 62-67 57 0H25v-261h32l-1 103c12-21 28-36 61-36 89 0 53 116 60 194h-32v-121c2-32-8-49-39-48" id="ai"/><g id="s"><use transform="matrix(0.06172839506172839,0,0,0.06172839506172839,0,0)" xlink:href="#Y"/><use transform="matrix(0.06172839506172839,0,0,0.06172839506172839,12.345679012345679,0)" xlink:href="#Z"/><use transform="matrix(0.06172839506172839,0,0,0.06172839506172839,23.45679012345679,0)" xlink:href="#aa"/><use transform="matrix(0.06172839506172839,0,0,0.06172839506172839,29.62962962962963,0)" xlink:href="#ab"/><use transform="matrix(0.06172839506172839,0,0,0.06172839506172839,34.50617283950617,0)" xlink:href="#ac"/><use transform="matrix(0.06172839506172839,0,0,0.06172839506172839,45.61728395061728,0)" xlink:href="#ad"/><use transform="matrix(0.06172839506172839,0,0,0.06172839506172839,57.962962962962955,0)" xlink:href="#ae"/><use transform="matrix(0.06172839506172839,0,0,0.06172839506172839,70.30864197530863,0)" xlink:href="#af"/><use transform="matrix(0.06172839506172839,0,0,0.06172839506172839,82.65432098765432,0)" xlink:href="#ag"/><use transform="matrix(0.06172839506172839,0,0,0.06172839506172839,90,0)" xlink:href="#Y"/><use transform="matrix(0.06172839506172839,0,0,0.06172839506172839,102.34567901234568,0)" xlink:href="#ah"/><use transform="matrix(0.06172839506172839,0,0,0.06172839506172839,114.69135802469137,0)" xlink:href="#ai"/></g><filter id="t" filterUnits="objectBoundingBox" x="-.04" y="-.11" width="1.13" height="1.31"><feOffset result="offOut" in="SourceAlpha" dx="2.83" dy="2.83"/><feGaussianBlur result="blurOut" in="offOut" stdDeviation="5"/><feColorMatrix result="colorOut" in="blurOut" values="0 0 0 0 0 0 0 0 0 0 0 0 0 0 0 0 0 0 0.5019607843137255 0"/><feBlend in="SourceGraphic" in2="colorOut"/></filter><path fill="#3a414a" d="M117-194c89-4 53 116 60 194h-32v-121c0-31-8-49-39-48C34-167 62-67 57 0H25l-1-190h30c1 10-1 24 2 32 11-22 29-35 61-36" id="aj"/><path fill="#3a414a" d="M210-169c-67 3-38 105-44 169h-31v-121c0-29-5-50-35-48C34-165 62-65 56 0H25l-1-190h30c1 10-1 24 2 32 10-44 99-50 107 0 11-21 27-35 58-36 85-2 47 119 55 194h-31v-121c0-29-5-49-35-48" id="ak"/><path fill="#3a414a" d="M135-143c-3-34-86-38-87 0 15 53 115 12 119 90S17 21 10-45l28-5c4 36 97 45 98 0-10-56-113-15-118-90-4-57 82-63 122-42 12 7 21 19 24 35" id="al"/><g id="u"><use transform="matrix(0.06172839506172839,0,0,0.06172839506172839,0,0)" xlink:href="#Y"/><use transform="matrix(0.06172839506172839,0,0,0.06172839506172839,12.345679012345679,0)" xlink:href="#Z"/><use transform="matrix(0.06172839506172839,0,0,0.06172839506172839,23.45679012345679,0)" xlink:href="#aa"/><use transform="matrix(0.06172839506172839,0,0,0.06172839506172839,29.62962962962963,0)" xlink:href="#ab"/><use transform="matrix(0.06172839506172839,0,0,0.06172839506172839,34.50617283950617,0)" xlink:href="#ac"/><use transform="matrix(0.06172839506172839,0,0,0.06172839506172839,45.61728395061728,0)" xlink:href="#ad"/><use transform="matrix(0.06172839506172839,0,0,0.06172839506172839,57.962962962962955,0)" xlink:href="#ae"/><use transform="matrix(0.06172839506172839,0,0,0.06172839506172839,70.30864197530863,0)" xlink:href="#aj"/><use transform="matrix(0.06172839506172839,0,0,0.06172839506172839,82.65432098765432,0)" xlink:href="#Y"/><use transform="matrix(0.06172839506172839,0,0,0.06172839506172839,95,0)" xlink:href="#ak"/><use transform="matrix(0.06172839506172839,0,0,0.06172839506172839,113.45679012345678,0)" xlink:href="#ad"/><use transform="matrix(0.06172839506172839,0,0,0.06172839506172839,125.80246913580247,0)" xlink:href="#al"/><use transform="matrix(0.06172839506172839,0,0,0.06172839506172839,136.91358024691357,0)" xlink:href="#ah"/><use transform="matrix(0.06172839506172839,0,0,0.06172839506172839,149.25925925925924,0)" xlink:href="#Y"/><use transform="matrix(0.06172839506172839,0,0,0.06172839506172839,161.6049382716049,0)" xlink:href="#Z"/><use transform="matrix(0.06172839506172839,0,0,0.06172839506172839,172.71604938271602,0)" xlink:href="#ad"/></g></defs></g></svg>