<?xml version="1.0" encoding="UTF-8" standalone="no"?>
<!DOCTYPE svg PUBLIC "-//W3C//DTD SVG 1.1//EN"
 "http://www.w3.org/Graphics/SVG/1.1/DTD/svg11.dtd">
<!-- Generated by graphviz version 2.43.0 (0)
 -->
<!-- Title: G Pages: 1 -->
<svg width="330pt" height="819pt"
 viewBox="0.00 0.00 330.00 819.00" xmlns="http://www.w3.org/2000/svg" xmlns:xlink="http://www.w3.org/1999/xlink">
<g id="graph0" class="graph" transform="scale(1 1) rotate(0) translate(4 815)">
<title>G</title>
<polygon fill="white" stroke="transparent" points="-4,4 -4,-815 326,-815 326,4 -4,4"/>
<g id="clust1" class="cluster">
<title>cluster_global</title>
<polygon fill="none" stroke="black" points="8,-8 8,-803 314,-803 314,-8 8,-8"/>
<text text-anchor="middle" x="161" y="-787.8" font-family="Times,serif" font-size="14.00">global</text>
</g>
<!-- csdl_alpha.src.graph.variable.Variable object at 0x722cbce7b580 -->
<g id="node1" class="node">
<title>csdl_alpha.src.graph.variable.Variable object at 0x722cbce7b580</title>
<ellipse fill="none" stroke="black" cx="197" cy="-754" rx="27" ry="18"/>
<text text-anchor="middle" x="197" y="-750.3" font-family="Times,serif" font-size="14.00">var</text>
</g>
<!-- csdl_alpha.src.operations.sub.Sub object at 0x722c89173b20 -->
<g id="node2" class="node">
<title>csdl_alpha.src.operations.sub.Sub object at 0x722c89173b20</title>
<ellipse fill="none" stroke="black" cx="84" cy="-682" rx="27.1" ry="18"/>
<text text-anchor="middle" x="84" y="-678.3" font-family="Times,serif" font-size="14.00">sub</text>
</g>
<!-- csdl_alpha.src.graph.variable.Variable object at 0x722cbce7b580&#45;&gt;csdl_alpha.src.operations.sub.Sub object at 0x722c89173b20 -->
<g id="edge1" class="edge">
<title>csdl_alpha.src.graph.variable.Variable object at 0x722cbce7b580&#45;&gt;csdl_alpha.src.operations.sub.Sub object at 0x722c89173b20</title>
<path fill="none" stroke="black" d="M177.83,-741.13C159.73,-729.91 132.38,-712.97 111.87,-700.26"/>
<polygon fill="black" stroke="black" points="113.61,-697.22 103.26,-694.93 109.92,-703.17 113.61,-697.22"/>
</g>
<!-- csdl_alpha.src.operations.mult.Mult object at 0x722c88530fd0 -->
<g id="node8" class="node">
<title>csdl_alpha.src.operations.mult.Mult object at 0x722c88530fd0</title>
<ellipse fill="none" stroke="black" cx="269" cy="-538" rx="32.49" ry="18"/>
<text text-anchor="middle" x="269" y="-534.3" font-family="Times,serif" font-size="14.00">mult</text>
</g>
<!-- csdl_alpha.src.graph.variable.Variable object at 0x722cbce7b580&#45;&gt;csdl_alpha.src.operations.mult.Mult object at 0x722c88530fd0 -->
<g id="edge7" class="edge">
<title>csdl_alpha.src.graph.variable.Variable object at 0x722cbce7b580&#45;&gt;csdl_alpha.src.operations.mult.Mult object at 0x722c88530fd0</title>
<path fill="none" stroke="black" d="M213.11,-739.25C236.47,-718.13 278.71,-675.18 295,-628 302.31,-606.82 293.98,-582.35 284.86,-564.44"/>
<polygon fill="black" stroke="black" points="287.68,-562.31 279.81,-555.23 281.55,-565.68 287.68,-562.31"/>
</g>
<!-- csdl_alpha.src.graph.variable.Variable object at 0x722c88530f70 -->
<g id="node4" class="node">
<title>csdl_alpha.src.graph.variable.Variable object at 0x722c88530f70</title>
<ellipse fill="none" stroke="black" cx="43" cy="-610" rx="27" ry="18"/>
<text text-anchor="middle" x="43" y="-606.3" font-family="Times,serif" font-size="14.00">var</text>
</g>
<!-- csdl_alpha.src.operations.sub.Sub object at 0x722c89173b20&#45;&gt;csdl_alpha.src.graph.variable.Variable object at 0x722c88530f70 -->
<g id="edge3" class="edge">
<title>csdl_alpha.src.operations.sub.Sub object at 0x722c89173b20&#45;&gt;csdl_alpha.src.graph.variable.Variable object at 0x722c88530f70</title>
<path fill="none" stroke="black" d="M74.49,-664.76C69.47,-656.19 63.2,-645.49 57.58,-635.9"/>
<polygon fill="black" stroke="black" points="60.53,-634.01 52.46,-627.15 54.49,-637.55 60.53,-634.01"/>
</g>
<!-- csdl_alpha.src.graph.variable.Variable object at 0x722c88530e20 -->
<g id="node3" class="node">
<title>csdl_alpha.src.graph.variable.Variable object at 0x722c88530e20</title>
<ellipse fill="none" stroke="black" cx="84" cy="-754" rx="27" ry="18"/>
<text text-anchor="middle" x="84" y="-750.3" font-family="Times,serif" font-size="14.00">var</text>
</g>
<!-- csdl_alpha.src.graph.variable.Variable object at 0x722c88530e20&#45;&gt;csdl_alpha.src.operations.sub.Sub object at 0x722c89173b20 -->
<g id="edge2" class="edge">
<title>csdl_alpha.src.graph.variable.Variable object at 0x722c88530e20&#45;&gt;csdl_alpha.src.operations.sub.Sub object at 0x722c89173b20</title>
<path fill="none" stroke="black" d="M84,-735.7C84,-727.98 84,-718.71 84,-710.11"/>
<polygon fill="black" stroke="black" points="87.5,-710.1 84,-700.1 80.5,-710.1 87.5,-710.1"/>
</g>
<!-- csdl_alpha.src.operations.power.Power object at 0x722c88530fa0 -->
<g id="node5" class="node">
<title>csdl_alpha.src.operations.power.Power object at 0x722c88530fa0</title>
<ellipse fill="none" stroke="black" cx="105" cy="-538" rx="39.79" ry="18"/>
<text text-anchor="middle" x="105" y="-534.3" font-family="Times,serif" font-size="14.00">power</text>
</g>
<!-- csdl_alpha.src.graph.variable.Variable object at 0x722c88530f70&#45;&gt;csdl_alpha.src.operations.power.Power object at 0x722c88530fa0 -->
<g id="edge4" class="edge">
<title>csdl_alpha.src.graph.variable.Variable object at 0x722c88530f70&#45;&gt;csdl_alpha.src.operations.power.Power object at 0x722c88530fa0</title>
<path fill="none" stroke="black" d="M56.15,-594.15C64.19,-585.07 74.67,-573.24 83.86,-562.87"/>
<polygon fill="black" stroke="black" points="86.56,-565.1 90.57,-555.29 81.32,-560.46 86.56,-565.1"/>
</g>
<!-- csdl_alpha.src.graph.variable.Variable object at 0x722c88531000 -->
<g id="node7" class="node">
<title>csdl_alpha.src.graph.variable.Variable object at 0x722c88531000</title>
<ellipse fill="none" stroke="black" cx="119" cy="-466" rx="27" ry="18"/>
<text text-anchor="middle" x="119" y="-462.3" font-family="Times,serif" font-size="14.00">var</text>
</g>
<!-- csdl_alpha.src.operations.power.Power object at 0x722c88530fa0&#45;&gt;csdl_alpha.src.graph.variable.Variable object at 0x722c88531000 -->
<g id="edge6" class="edge">
<title>csdl_alpha.src.operations.power.Power object at 0x722c88530fa0&#45;&gt;csdl_alpha.src.graph.variable.Variable object at 0x722c88531000</title>
<path fill="none" stroke="black" d="M108.39,-520.05C109.93,-512.35 111.79,-503.03 113.53,-494.36"/>
<polygon fill="black" stroke="black" points="117.02,-494.77 115.54,-484.28 110.15,-493.39 117.02,-494.77"/>
</g>
<!-- csdl_alpha.src.graph.variable.Variable object at 0x722c88530f40 -->
<g id="node6" class="node">
<title>csdl_alpha.src.graph.variable.Variable object at 0x722c88530f40</title>
<ellipse fill="none" stroke="black" cx="115" cy="-610" rx="27" ry="18"/>
<text text-anchor="middle" x="115" y="-606.3" font-family="Times,serif" font-size="14.00">var</text>
</g>
<!-- csdl_alpha.src.graph.variable.Variable object at 0x722c88530f40&#45;&gt;csdl_alpha.src.operations.power.Power object at 0x722c88530fa0 -->
<g id="edge5" class="edge">
<title>csdl_alpha.src.graph.variable.Variable object at 0x722c88530f40&#45;&gt;csdl_alpha.src.operations.power.Power object at 0x722c88530fa0</title>
<path fill="none" stroke="black" d="M112.58,-592.05C111.48,-584.35 110.15,-575.03 108.91,-566.36"/>
<polygon fill="black" stroke="black" points="112.35,-565.68 107.47,-556.28 105.42,-566.67 112.35,-565.68"/>
</g>
<!-- csdl_alpha.src.operations.add.Add object at 0x722c88531030 -->
<g id="node11" class="node">
<title>csdl_alpha.src.operations.add.Add object at 0x722c88531030</title>
<ellipse fill="none" stroke="black" cx="169" cy="-394" rx="27.9" ry="18"/>
<text text-anchor="middle" x="169" y="-390.3" font-family="Times,serif" font-size="14.00">add</text>
</g>
<!-- csdl_alpha.src.graph.variable.Variable object at 0x722c88531000&#45;&gt;csdl_alpha.src.operations.add.Add object at 0x722c88531030 -->
<g id="edge10" class="edge">
<title>csdl_alpha.src.graph.variable.Variable object at 0x722c88531000&#45;&gt;csdl_alpha.src.operations.add.Add object at 0x722c88531030</title>
<path fill="none" stroke="black" d="M130.1,-449.46C136.42,-440.62 144.47,-429.34 151.61,-419.34"/>
<polygon fill="black" stroke="black" points="154.62,-421.15 157.59,-410.98 148.93,-417.08 154.62,-421.15"/>
</g>
<!-- csdl_alpha.src.graph.variable.Variable object at 0x722c88531060 -->
<g id="node10" class="node">
<title>csdl_alpha.src.graph.variable.Variable object at 0x722c88531060</title>
<ellipse fill="none" stroke="black" cx="266" cy="-466" rx="27" ry="18"/>
<text text-anchor="middle" x="266" y="-462.3" font-family="Times,serif" font-size="14.00">var</text>
</g>
<!-- csdl_alpha.src.operations.mult.Mult object at 0x722c88530fd0&#45;&gt;csdl_alpha.src.graph.variable.Variable object at 0x722c88531060 -->
<g id="edge9" class="edge">
<title>csdl_alpha.src.operations.mult.Mult object at 0x722c88530fd0&#45;&gt;csdl_alpha.src.graph.variable.Variable object at 0x722c88531060</title>
<path fill="none" stroke="black" d="M268.26,-519.7C267.93,-511.98 267.53,-502.71 267.16,-494.11"/>
<polygon fill="black" stroke="black" points="270.66,-493.95 266.73,-484.1 263.66,-494.25 270.66,-493.95"/>
</g>
<!-- csdl_alpha.src.graph.variable.Variable object at 0x722c89173970 -->
<g id="node9" class="node">
<title>csdl_alpha.src.graph.variable.Variable object at 0x722c89173970</title>
<ellipse fill="none" stroke="black" cx="259" cy="-610" rx="27" ry="18"/>
<text text-anchor="middle" x="259" y="-606.3" font-family="Times,serif" font-size="14.00">y</text>
</g>
<!-- csdl_alpha.src.graph.variable.Variable object at 0x722c89173970&#45;&gt;csdl_alpha.src.operations.mult.Mult object at 0x722c88530fd0 -->
<g id="edge8" class="edge">
<title>csdl_alpha.src.graph.variable.Variable object at 0x722c89173970&#45;&gt;csdl_alpha.src.operations.mult.Mult object at 0x722c88530fd0</title>
<path fill="none" stroke="black" d="M261.42,-592.05C262.52,-584.35 263.85,-575.03 265.09,-566.36"/>
<polygon fill="black" stroke="black" points="268.58,-566.67 266.53,-556.28 261.65,-565.68 268.58,-566.67"/>
</g>
<!-- csdl_alpha.src.operations.add.Add object at 0x722c885310f0 -->
<g id="node13" class="node">
<title>csdl_alpha.src.operations.add.Add object at 0x722c885310f0</title>
<ellipse fill="none" stroke="black" cx="191" cy="-538" rx="27.9" ry="18"/>
<text text-anchor="middle" x="191" y="-534.3" font-family="Times,serif" font-size="14.00">add</text>
</g>
<!-- csdl_alpha.src.graph.variable.Variable object at 0x722c89173970&#45;&gt;csdl_alpha.src.operations.add.Add object at 0x722c885310f0 -->
<g id="edge13" class="edge">
<title>csdl_alpha.src.graph.variable.Variable object at 0x722c89173970&#45;&gt;csdl_alpha.src.operations.add.Add object at 0x722c885310f0</title>
<path fill="none" stroke="black" d="M244.91,-594.5C235.64,-584.96 223.33,-572.28 212.81,-561.46"/>
<polygon fill="black" stroke="black" points="215.02,-558.7 205.54,-553.97 210,-563.58 215.02,-558.7"/>
</g>
<!-- csdl_alpha.src.graph.variable.Variable object at 0x722c88531060&#45;&gt;csdl_alpha.src.operations.add.Add object at 0x722c88531030 -->
<g id="edge11" class="edge">
<title>csdl_alpha.src.graph.variable.Variable object at 0x722c88531060&#45;&gt;csdl_alpha.src.operations.add.Add object at 0x722c88531030</title>
<path fill="none" stroke="black" d="M248.21,-452.16C233.4,-441.47 212.1,-426.1 195.31,-413.99"/>
<polygon fill="black" stroke="black" points="197.16,-411.01 187.01,-407.99 193.07,-416.68 197.16,-411.01"/>
</g>
<!-- csdl_alpha.src.graph.variable.Variable object at 0x722c885310c0 -->
<g id="node12" class="node">
<title>csdl_alpha.src.graph.variable.Variable object at 0x722c885310c0</title>
<ellipse fill="none" stroke="black" cx="165" cy="-322" rx="27" ry="18"/>
<text text-anchor="middle" x="165" y="-318.3" font-family="Times,serif" font-size="14.00">var</text>
</g>
<!-- csdl_alpha.src.operations.add.Add object at 0x722c88531030&#45;&gt;csdl_alpha.src.graph.variable.Variable object at 0x722c885310c0 -->
<g id="edge12" class="edge">
<title>csdl_alpha.src.operations.add.Add object at 0x722c88531030&#45;&gt;csdl_alpha.src.graph.variable.Variable object at 0x722c885310c0</title>
<path fill="none" stroke="black" d="M168.01,-375.7C167.57,-367.98 167.04,-358.71 166.55,-350.11"/>
<polygon fill="black" stroke="black" points="170.04,-349.89 165.98,-340.1 163.05,-350.29 170.04,-349.89"/>
</g>
<!-- csdl_alpha.src.operations.add.Add object at 0x722c885311b0 -->
<g id="node19" class="node">
<title>csdl_alpha.src.operations.add.Add object at 0x722c885311b0</title>
<ellipse fill="none" stroke="black" cx="115" cy="-250" rx="27.9" ry="18"/>
<text text-anchor="middle" x="115" y="-246.3" font-family="Times,serif" font-size="14.00">add</text>
</g>
<!-- csdl_alpha.src.graph.variable.Variable object at 0x722c885310c0&#45;&gt;csdl_alpha.src.operations.add.Add object at 0x722c885311b0 -->
<g id="edge19" class="edge">
<title>csdl_alpha.src.graph.variable.Variable object at 0x722c885310c0&#45;&gt;csdl_alpha.src.operations.add.Add object at 0x722c885311b0</title>
<path fill="none" stroke="black" d="M153.9,-305.46C147.58,-296.62 139.53,-285.34 132.39,-275.34"/>
<polygon fill="black" stroke="black" points="135.07,-273.08 126.41,-266.98 129.38,-277.15 135.07,-273.08"/>
</g>
<!-- csdl_alpha.src.graph.variable.Variable object at 0x722c88531150 -->
<g id="node15" class="node">
<title>csdl_alpha.src.graph.variable.Variable object at 0x722c88531150</title>
<ellipse fill="none" stroke="black" cx="191" cy="-466" rx="27" ry="18"/>
<text text-anchor="middle" x="191" y="-462.3" font-family="Times,serif" font-size="14.00">var</text>
</g>
<!-- csdl_alpha.src.operations.add.Add object at 0x722c885310f0&#45;&gt;csdl_alpha.src.graph.variable.Variable object at 0x722c88531150 -->
<g id="edge15" class="edge">
<title>csdl_alpha.src.operations.add.Add object at 0x722c885310f0&#45;&gt;csdl_alpha.src.graph.variable.Variable object at 0x722c88531150</title>
<path fill="none" stroke="black" d="M191,-519.7C191,-511.98 191,-502.71 191,-494.11"/>
<polygon fill="black" stroke="black" points="194.5,-494.1 191,-484.1 187.5,-494.1 194.5,-494.1"/>
</g>
<!-- csdl_alpha.src.graph.variable.Variable object at 0x722c88531090 -->
<g id="node14" class="node">
<title>csdl_alpha.src.graph.variable.Variable object at 0x722c88531090</title>
<ellipse fill="none" stroke="black" cx="187" cy="-610" rx="27" ry="18"/>
<text text-anchor="middle" x="187" y="-606.3" font-family="Times,serif" font-size="14.00">var</text>
</g>
<!-- csdl_alpha.src.graph.variable.Variable object at 0x722c88531090&#45;&gt;csdl_alpha.src.operations.add.Add object at 0x722c885310f0 -->
<g id="edge14" class="edge">
<title>csdl_alpha.src.graph.variable.Variable object at 0x722c88531090&#45;&gt;csdl_alpha.src.operations.add.Add object at 0x722c885310f0</title>
<path fill="none" stroke="black" d="M187.99,-591.7C188.43,-583.98 188.96,-574.71 189.45,-566.11"/>
<polygon fill="black" stroke="black" points="192.95,-566.29 190.02,-556.1 185.96,-565.89 192.95,-566.29"/>
</g>
<!-- csdl_alpha.src.operations.power.Power object at 0x722c88531180 -->
<g id="node16" class="node">
<title>csdl_alpha.src.operations.power.Power object at 0x722c88531180</title>
<ellipse fill="none" stroke="black" cx="83" cy="-394" rx="39.79" ry="18"/>
<text text-anchor="middle" x="83" y="-390.3" font-family="Times,serif" font-size="14.00">power</text>
</g>
<!-- csdl_alpha.src.graph.variable.Variable object at 0x722c88531150&#45;&gt;csdl_alpha.src.operations.power.Power object at 0x722c88531180 -->
<g id="edge16" class="edge">
<title>csdl_alpha.src.graph.variable.Variable object at 0x722c88531150&#45;&gt;csdl_alpha.src.operations.power.Power object at 0x722c88531180</title>
<path fill="none" stroke="black" d="M172.19,-452.81C156.01,-442.32 132.38,-427.01 113.51,-414.77"/>
<polygon fill="black" stroke="black" points="115.24,-411.73 104.94,-409.22 111.43,-417.6 115.24,-411.73"/>
</g>
<!-- csdl_alpha.src.graph.variable.Variable object at 0x722c885311e0 -->
<g id="node18" class="node">
<title>csdl_alpha.src.graph.variable.Variable object at 0x722c885311e0</title>
<ellipse fill="none" stroke="black" cx="86" cy="-322" rx="27" ry="18"/>
<text text-anchor="middle" x="86" y="-318.3" font-family="Times,serif" font-size="14.00">var</text>
</g>
<!-- csdl_alpha.src.operations.power.Power object at 0x722c88531180&#45;&gt;csdl_alpha.src.graph.variable.Variable object at 0x722c885311e0 -->
<g id="edge18" class="edge">
<title>csdl_alpha.src.operations.power.Power object at 0x722c88531180&#45;&gt;csdl_alpha.src.graph.variable.Variable object at 0x722c885311e0</title>
<path fill="none" stroke="black" d="M83.74,-375.7C84.07,-367.98 84.47,-358.71 84.84,-350.11"/>
<polygon fill="black" stroke="black" points="88.34,-350.25 85.27,-340.1 81.34,-349.95 88.34,-350.25"/>
</g>
<!-- csdl_alpha.src.graph.variable.Variable object at 0x722c88531120 -->
<g id="node17" class="node">
<title>csdl_alpha.src.graph.variable.Variable object at 0x722c88531120</title>
<ellipse fill="none" stroke="black" cx="47" cy="-466" rx="27" ry="18"/>
<text text-anchor="middle" x="47" y="-462.3" font-family="Times,serif" font-size="14.00">var</text>
</g>
<!-- csdl_alpha.src.graph.variable.Variable object at 0x722c88531120&#45;&gt;csdl_alpha.src.operations.power.Power object at 0x722c88531180 -->
<g id="edge17" class="edge">
<title>csdl_alpha.src.graph.variable.Variable object at 0x722c88531120&#45;&gt;csdl_alpha.src.operations.power.Power object at 0x722c88531180</title>
<path fill="none" stroke="black" d="M55.35,-448.76C59.65,-440.4 64.99,-430.02 69.83,-420.61"/>
<polygon fill="black" stroke="black" points="72.98,-422.13 74.45,-411.63 66.76,-418.93 72.98,-422.13"/>
</g>
<!-- csdl_alpha.src.graph.variable.Variable object at 0x722c885311e0&#45;&gt;csdl_alpha.src.operations.add.Add object at 0x722c885311b0 -->
<g id="edge20" class="edge">
<title>csdl_alpha.src.graph.variable.Variable object at 0x722c885311e0&#45;&gt;csdl_alpha.src.operations.add.Add object at 0x722c885311b0</title>
<path fill="none" stroke="black" d="M92.87,-304.41C96.27,-296.22 100.44,-286.14 104.25,-276.95"/>
<polygon fill="black" stroke="black" points="107.58,-278.05 108.18,-267.47 101.12,-275.37 107.58,-278.05"/>
</g>
<!-- csdl_alpha.src.graph.variable.Variable object at 0x722c88531240 -->
<g id="node20" class="node">
<title>csdl_alpha.src.graph.variable.Variable object at 0x722c88531240</title>
<ellipse fill="none" stroke="black" cx="115" cy="-178" rx="27" ry="18"/>
<text text-anchor="middle" x="115" y="-174.3" font-family="Times,serif" font-size="14.00">var</text>
</g>
<!-- csdl_alpha.src.operations.add.Add object at 0x722c885311b0&#45;&gt;csdl_alpha.src.graph.variable.Variable object at 0x722c88531240 -->
<g id="edge21" class="edge">
<title>csdl_alpha.src.operations.add.Add object at 0x722c885311b0&#45;&gt;csdl_alpha.src.graph.variable.Variable object at 0x722c88531240</title>
<path fill="none" stroke="black" d="M115,-231.7C115,-223.98 115,-214.71 115,-206.11"/>
<polygon fill="black" stroke="black" points="118.5,-206.1 115,-196.1 111.5,-206.1 118.5,-206.1"/>
</g>
<!-- csdl_alpha.src.operations.sub.Sub object at 0x722c88531210 -->
<g id="node21" class="node">
<title>csdl_alpha.src.operations.sub.Sub object at 0x722c88531210</title>
<ellipse fill="none" stroke="black" cx="79" cy="-106" rx="27.1" ry="18"/>
<text text-anchor="middle" x="79" y="-102.3" font-family="Times,serif" font-size="14.00">sub</text>
</g>
<!-- csdl_alpha.src.graph.variable.Variable object at 0x722c88531240&#45;&gt;csdl_alpha.src.operations.sub.Sub object at 0x722c88531210 -->
<g id="edge22" class="edge">
<title>csdl_alpha.src.graph.variable.Variable object at 0x722c88531240&#45;&gt;csdl_alpha.src.operations.sub.Sub object at 0x722c88531210</title>
<path fill="none" stroke="black" d="M106.65,-160.76C102.29,-152.28 96.85,-141.71 91.96,-132.2"/>
<polygon fill="black" stroke="black" points="94.99,-130.44 87.3,-123.15 88.77,-133.64 94.99,-130.44"/>
</g>
<!-- csdl_alpha.src.graph.variable.Variable object at 0x722c88531420 -->
<g id="node23" class="node">
<title>csdl_alpha.src.graph.variable.Variable object at 0x722c88531420</title>
<ellipse fill="none" stroke="black" cx="79" cy="-34" rx="27" ry="18"/>
<text text-anchor="middle" x="79" y="-30.3" font-family="Times,serif" font-size="14.00">var</text>
</g>
<!-- csdl_alpha.src.operations.sub.Sub object at 0x722c88531210&#45;&gt;csdl_alpha.src.graph.variable.Variable object at 0x722c88531420 -->
<g id="edge24" class="edge">
<title>csdl_alpha.src.operations.sub.Sub object at 0x722c88531210&#45;&gt;csdl_alpha.src.graph.variable.Variable object at 0x722c88531420</title>
<path fill="none" stroke="black" d="M79,-87.7C79,-79.98 79,-70.71 79,-62.11"/>
<polygon fill="black" stroke="black" points="82.5,-62.1 79,-52.1 75.5,-62.1 82.5,-62.1"/>
</g>
<!-- csdl_alpha.src.graph.variable.Variable object at 0x722c885312a0 -->
<g id="node22" class="node">
<title>csdl_alpha.src.graph.variable.Variable object at 0x722c885312a0</title>
<ellipse fill="none" stroke="black" cx="43" cy="-178" rx="27" ry="18"/>
<text text-anchor="middle" x="43" y="-174.3" font-family="Times,serif" font-size="14.00">var</text>
</g>
<!-- csdl_alpha.src.graph.variable.Variable object at 0x722c885312a0&#45;&gt;csdl_alpha.src.operations.sub.Sub object at 0x722c88531210 -->
<g id="edge23" class="edge">
<title>csdl_alpha.src.graph.variable.Variable object at 0x722c885312a0&#45;&gt;csdl_alpha.src.operations.sub.Sub object at 0x722c88531210</title>
<path fill="none" stroke="black" d="M51.35,-160.76C55.71,-152.28 61.15,-141.71 66.04,-132.2"/>
<polygon fill="black" stroke="black" points="69.23,-133.64 70.7,-123.15 63.01,-130.44 69.23,-133.64"/>
</g>
</g>
</svg>
