<?xml version="1.0" encoding="UTF-8" standalone="no"?>
<!DOCTYPE svg PUBLIC "-//W3C//DTD SVG 1.1//EN"
 "http://www.w3.org/Graphics/SVG/1.1/DTD/svg11.dtd">
<!-- Generated by graphviz version 2.43.0 (0)
 -->
<!-- Title: G Pages: 1 -->
<svg width="1438pt" height="720pt"
 viewBox="0.00 0.00 1438.00 720.00" xmlns="http://www.w3.org/2000/svg" xmlns:xlink="http://www.w3.org/1999/xlink">
<g id="graph0" class="graph" transform="scale(1 1) rotate(0) translate(4 716)">
<title>G</title>
<polygon fill="white" stroke="transparent" points="-4,4 -4,-716 1434,-716 1434,4 -4,4"/>
<g id="clust1" class="cluster">
<title>cluster_global</title>
<polygon fill="none" stroke="black" points="8,-8 8,-704 1422,-704 1422,-8 8,-8"/>
<text text-anchor="middle" x="715" y="-688.8" font-family="Times,serif" font-size="14.00">global</text>
</g>
<g id="clust2" class="cluster">
<title>cluster_Discipline 1</title>
<polygon fill="none" stroke="black" points="1128,-160 1128,-673 1414,-673 1414,-160 1128,-160"/>
<text text-anchor="middle" x="1271" y="-657.8" font-family="Times,serif" font-size="14.00">Discipline 1</text>
</g>
<g id="clust3" class="cluster">
<title>cluster_Discipline 2</title>
<polygon fill="none" stroke="black" points="562,-448 562,-523 890,-523 890,-448 562,-448"/>
<text text-anchor="middle" x="726" y="-507.8" font-family="Times,serif" font-size="14.00">Discipline 2</text>
</g>
<g id="clust4" class="cluster">
<title>cluster_Couple</title>
<polygon fill="none" stroke="black" points="898,-448 898,-598 1120,-598 1120,-448 898,-448"/>
<text text-anchor="middle" x="1009" y="-582.8" font-family="Times,serif" font-size="14.00">Couple</text>
</g>
<g id="clust5" class="cluster">
<title>cluster_Objective</title>
<polygon fill="none" stroke="black" points="16,-16 16,-673 162,-673 162,-16 16,-16"/>
<text text-anchor="middle" x="89" y="-657.8" font-family="Times,serif" font-size="14.00">Objective</text>
</g>
<g id="clust6" class="cluster">
<title>cluster_Constraint 1</title>
<polygon fill="none" stroke="black" points="232,-448 232,-673 338,-673 338,-448 232,-448"/>
<text text-anchor="middle" x="285" y="-657.8" font-family="Times,serif" font-size="14.00">Constraint 1</text>
</g>
<g id="clust7" class="cluster">
<title>cluster_Constraint 2</title>
<polygon fill="none" stroke="black" points="448,-304 448,-523 554,-523 554,-304 448,-304"/>
<text text-anchor="middle" x="501" y="-507.8" font-family="Times,serif" font-size="14.00">Constraint 2</text>
</g>
<!-- csdl_alpha.src.graph.variable.Variable object at 0x7b9493b30250 -->
<g id="node1" class="node">
<title>csdl_alpha.src.graph.variable.Variable object at 0x7b9493b30250</title>
<ellipse fill="none" stroke="black" cx="1086" cy="-624" rx="27" ry="18"/>
<text text-anchor="middle" x="1086" y="-620.3" font-family="Times,serif" font-size="14.00">z1</text>
</g>
<!-- csdl_alpha.src.operations.power.Power object at 0x7b945f872670 -->
<g id="node2" class="node">
<title>csdl_alpha.src.operations.power.Power object at 0x7b945f872670</title>
<ellipse fill="none" stroke="black" cx="1190" cy="-549" rx="39.79" ry="18"/>
<text text-anchor="middle" x="1190" y="-545.3" font-family="Times,serif" font-size="14.00">power</text>
</g>
<!-- csdl_alpha.src.graph.variable.Variable object at 0x7b9493b30250&#45;&gt;csdl_alpha.src.operations.power.Power object at 0x7b945f872670 -->
<g id="edge1" class="edge">
<title>csdl_alpha.src.graph.variable.Variable object at 0x7b9493b30250&#45;&gt;csdl_alpha.src.operations.power.Power object at 0x7b945f872670</title>
<path fill="none" stroke="black" d="M1107.59,-613.02C1112.92,-610.64 1118.64,-608.17 1124,-606 1133.64,-602.1 1137.35,-603.78 1146,-598 1155.55,-591.62 1164.44,-582.75 1171.7,-574.37"/>
<polygon fill="black" stroke="black" points="1174.46,-576.52 1178.13,-566.58 1169.07,-572.07 1174.46,-576.52"/>
</g>
<!-- csdl_alpha.src.operations.implicit_operations.implicit_operation.ImplicitOperation object at 0x7b945ef6bd90 -->
<g id="node11" class="node">
<title>csdl_alpha.src.operations.implicit_operations.implicit_operation.ImplicitOperation object at 0x7b945ef6bd90</title>
<ellipse fill="none" stroke="black" cx="1009" cy="-549" rx="102.88" ry="18"/>
<text text-anchor="middle" x="1009" y="-545.3" font-family="Times,serif" font-size="14.00">implicit_gs_nlsolver</text>
</g>
<!-- csdl_alpha.src.graph.variable.Variable object at 0x7b9493b30250&#45;&gt;csdl_alpha.src.operations.implicit_operations.implicit_operation.ImplicitOperation object at 0x7b945ef6bd90 -->
<g id="edge21" class="edge">
<title>csdl_alpha.src.graph.variable.Variable object at 0x7b9493b30250&#45;&gt;csdl_alpha.src.operations.implicit_operations.implicit_operation.ImplicitOperation object at 0x7b945ef6bd90</title>
<path fill="none" stroke="black" d="M1071.15,-608.92C1060.66,-598.97 1046.33,-585.39 1034.08,-573.78"/>
<polygon fill="black" stroke="black" points="1036.44,-571.19 1026.77,-566.85 1031.62,-576.27 1036.44,-571.19"/>
</g>
<!-- csdl_alpha.src.graph.variable.Variable object at 0x7b945f716a30 -->
<g id="node4" class="node">
<title>csdl_alpha.src.graph.variable.Variable object at 0x7b945f716a30</title>
<ellipse fill="none" stroke="black" cx="1183" cy="-474" rx="27" ry="18"/>
<text text-anchor="middle" x="1183" y="-470.3" font-family="Times,serif" font-size="14.00">var</text>
</g>
<!-- csdl_alpha.src.operations.power.Power object at 0x7b945f872670&#45;&gt;csdl_alpha.src.graph.variable.Variable object at 0x7b945f716a30 -->
<g id="edge3" class="edge">
<title>csdl_alpha.src.operations.power.Power object at 0x7b945f872670&#45;&gt;csdl_alpha.src.graph.variable.Variable object at 0x7b945f716a30</title>
<path fill="none" stroke="black" d="M1188.34,-530.7C1187.53,-522.25 1186.54,-511.87 1185.62,-502.37"/>
<polygon fill="black" stroke="black" points="1189.09,-501.8 1184.65,-492.18 1182.12,-502.46 1189.09,-501.8"/>
</g>
<!-- csdl_alpha.src.graph.variable.Variable object at 0x7b945f8726a0 -->
<g id="node3" class="node">
<title>csdl_alpha.src.graph.variable.Variable object at 0x7b945f8726a0</title>
<ellipse fill="none" stroke="black" cx="1379" cy="-624" rx="27" ry="18"/>
<text text-anchor="middle" x="1379" y="-620.3" font-family="Times,serif" font-size="14.00">var</text>
</g>
<!-- csdl_alpha.src.graph.variable.Variable object at 0x7b945f8726a0&#45;&gt;csdl_alpha.src.operations.power.Power object at 0x7b945f872670 -->
<g id="edge2" class="edge">
<title>csdl_alpha.src.graph.variable.Variable object at 0x7b945f8726a0&#45;&gt;csdl_alpha.src.operations.power.Power object at 0x7b945f872670</title>
<path fill="none" stroke="black" d="M1357.82,-612.61C1352.99,-610.35 1347.85,-608.03 1343,-606 1305.32,-590.25 1261.48,-574.45 1230.41,-563.67"/>
<polygon fill="black" stroke="black" points="1231.39,-560.31 1220.79,-560.35 1229.11,-566.92 1231.39,-560.31"/>
</g>
<!-- csdl_alpha.src.operations.add.Add object at 0x7b945f716730 -->
<g id="node5" class="node">
<title>csdl_alpha.src.operations.add.Add object at 0x7b945f716730</title>
<ellipse fill="none" stroke="black" cx="1164" cy="-402" rx="27.9" ry="18"/>
<text text-anchor="middle" x="1164" y="-398.3" font-family="Times,serif" font-size="14.00">add</text>
</g>
<!-- csdl_alpha.src.graph.variable.Variable object at 0x7b945f716a30&#45;&gt;csdl_alpha.src.operations.add.Add object at 0x7b945f716730 -->
<g id="edge4" class="edge">
<title>csdl_alpha.src.graph.variable.Variable object at 0x7b945f716a30&#45;&gt;csdl_alpha.src.operations.add.Add object at 0x7b945f716730</title>
<path fill="none" stroke="black" d="M1178.4,-456.05C1176.25,-448.14 1173.65,-438.54 1171.24,-429.69"/>
<polygon fill="black" stroke="black" points="1174.55,-428.52 1168.56,-419.79 1167.8,-430.36 1174.55,-428.52"/>
</g>
<!-- csdl_alpha.src.graph.variable.Variable object at 0x7b945f716df0 -->
<g id="node7" class="node">
<title>csdl_alpha.src.graph.variable.Variable object at 0x7b945f716df0</title>
<ellipse fill="none" stroke="black" cx="1164" cy="-330" rx="27" ry="18"/>
<text text-anchor="middle" x="1164" y="-326.3" font-family="Times,serif" font-size="14.00">var</text>
</g>
<!-- csdl_alpha.src.operations.add.Add object at 0x7b945f716730&#45;&gt;csdl_alpha.src.graph.variable.Variable object at 0x7b945f716df0 -->
<g id="edge6" class="edge">
<title>csdl_alpha.src.operations.add.Add object at 0x7b945f716730&#45;&gt;csdl_alpha.src.graph.variable.Variable object at 0x7b945f716df0</title>
<path fill="none" stroke="black" d="M1164,-383.7C1164,-375.98 1164,-366.71 1164,-358.11"/>
<polygon fill="black" stroke="black" points="1167.5,-358.1 1164,-348.1 1160.5,-358.1 1167.5,-358.1"/>
</g>
<!-- csdl_alpha.src.graph.variable.Variable object at 0x7b9493b30280 -->
<g id="node6" class="node">
<title>csdl_alpha.src.graph.variable.Variable object at 0x7b9493b30280</title>
<ellipse fill="none" stroke="black" cx="1009" cy="-624" rx="27" ry="18"/>
<text text-anchor="middle" x="1009" y="-620.3" font-family="Times,serif" font-size="14.00">z2</text>
</g>
<!-- csdl_alpha.src.graph.variable.Variable object at 0x7b9493b30280&#45;&gt;csdl_alpha.src.operations.add.Add object at 0x7b945f716730 -->
<g id="edge5" class="edge">
<title>csdl_alpha.src.graph.variable.Variable object at 0x7b9493b30280&#45;&gt;csdl_alpha.src.operations.add.Add object at 0x7b945f716730</title>
<path fill="none" stroke="black" d="M1030.31,-612.82C1036.53,-610.21 1043.43,-607.68 1050,-606 1066.02,-601.9 1112.05,-609.43 1124,-598 1136.18,-586.35 1142.72,-464.31 1147,-448 1148.6,-441.89 1150.74,-435.47 1152.96,-429.45"/>
<polygon fill="black" stroke="black" points="1156.34,-430.41 1156.69,-419.82 1149.81,-427.88 1156.34,-430.41"/>
</g>
<!-- csdl_alpha.src.graph.variable.Variable object at 0x7b9493b30280&#45;&gt;csdl_alpha.src.operations.implicit_operations.implicit_operation.ImplicitOperation object at 0x7b945ef6bd90 -->
<g id="edge19" class="edge">
<title>csdl_alpha.src.graph.variable.Variable object at 0x7b9493b30280&#45;&gt;csdl_alpha.src.operations.implicit_operations.implicit_operation.ImplicitOperation object at 0x7b945ef6bd90</title>
<path fill="none" stroke="black" d="M1009,-605.7C1009,-597.25 1009,-586.87 1009,-577.37"/>
<polygon fill="black" stroke="black" points="1012.5,-577.18 1009,-567.18 1005.5,-577.18 1012.5,-577.18"/>
</g>
<!-- csdl_alpha.src.operations.add.Add object at 0x7b945ef6b460 -->
<g id="node24" class="node">
<title>csdl_alpha.src.operations.add.Add object at 0x7b945ef6b460</title>
<ellipse fill="none" stroke="black" cx="52" cy="-402" rx="27.9" ry="18"/>
<text text-anchor="middle" x="52" y="-398.3" font-family="Times,serif" font-size="14.00">add</text>
</g>
<!-- csdl_alpha.src.graph.variable.Variable object at 0x7b9493b30280&#45;&gt;csdl_alpha.src.operations.add.Add object at 0x7b945ef6b460 -->
<g id="edge26" class="edge">
<title>csdl_alpha.src.graph.variable.Variable object at 0x7b9493b30280&#45;&gt;csdl_alpha.src.operations.add.Add object at 0x7b945ef6b460</title>
<path fill="none" stroke="black" d="M981.89,-622.92C862.11,-622.43 385.25,-619.16 362,-598 312.26,-552.73 390.09,-495.02 342,-448 301.56,-408.45 143.51,-435.11 89,-420 86.84,-419.4 84.65,-418.69 82.47,-417.9"/>
<polygon fill="black" stroke="black" points="83.66,-414.61 73.08,-414.09 81.03,-421.1 83.66,-414.61"/>
</g>
<!-- csdl_alpha.src.operations.add.Add object at 0x7b945f716be0 -->
<g id="node8" class="node">
<title>csdl_alpha.src.operations.add.Add object at 0x7b945f716be0</title>
<ellipse fill="none" stroke="black" cx="1164" cy="-258" rx="27.9" ry="18"/>
<text text-anchor="middle" x="1164" y="-254.3" font-family="Times,serif" font-size="14.00">add</text>
</g>
<!-- csdl_alpha.src.graph.variable.Variable object at 0x7b945f716df0&#45;&gt;csdl_alpha.src.operations.add.Add object at 0x7b945f716be0 -->
<g id="edge7" class="edge">
<title>csdl_alpha.src.graph.variable.Variable object at 0x7b945f716df0&#45;&gt;csdl_alpha.src.operations.add.Add object at 0x7b945f716be0</title>
<path fill="none" stroke="black" d="M1164,-311.7C1164,-303.98 1164,-294.71 1164,-286.11"/>
<polygon fill="black" stroke="black" points="1167.5,-286.1 1164,-276.1 1160.5,-286.1 1167.5,-286.1"/>
</g>
<!-- csdl_alpha.src.graph.variable.Variable object at 0x7b945f716e50 -->
<g id="node10" class="node">
<title>csdl_alpha.src.graph.variable.Variable object at 0x7b945f716e50</title>
<ellipse fill="none" stroke="black" cx="1163" cy="-186" rx="27" ry="18"/>
<text text-anchor="middle" x="1163" y="-182.3" font-family="Times,serif" font-size="14.00">var</text>
</g>
<!-- csdl_alpha.src.operations.add.Add object at 0x7b945f716be0&#45;&gt;csdl_alpha.src.graph.variable.Variable object at 0x7b945f716e50 -->
<g id="edge9" class="edge">
<title>csdl_alpha.src.operations.add.Add object at 0x7b945f716be0&#45;&gt;csdl_alpha.src.graph.variable.Variable object at 0x7b945f716e50</title>
<path fill="none" stroke="black" d="M1163.75,-239.7C1163.64,-231.98 1163.51,-222.71 1163.39,-214.11"/>
<polygon fill="black" stroke="black" points="1166.89,-214.05 1163.24,-204.1 1159.89,-214.15 1166.89,-214.05"/>
</g>
<!-- csdl_alpha.src.graph.variable.Variable object at 0x7b9493b302b0 -->
<g id="node9" class="node">
<title>csdl_alpha.src.graph.variable.Variable object at 0x7b9493b302b0</title>
<ellipse fill="none" stroke="black" cx="197" cy="-624" rx="27" ry="18"/>
<text text-anchor="middle" x="197" y="-620.3" font-family="Times,serif" font-size="14.00">x</text>
</g>
<!-- csdl_alpha.src.graph.variable.Variable object at 0x7b9493b302b0&#45;&gt;csdl_alpha.src.operations.add.Add object at 0x7b945f716be0 -->
<g id="edge8" class="edge">
<title>csdl_alpha.src.graph.variable.Variable object at 0x7b9493b302b0&#45;&gt;csdl_alpha.src.operations.add.Add object at 0x7b945f716be0</title>
<path fill="none" stroke="black" d="M195.81,-605.99C194.33,-572.77 195.24,-498.1 228,-448 291.14,-351.43 334.67,-340.86 444,-304 571.99,-260.84 995.4,-258.47 1125.58,-258.79"/>
<polygon fill="black" stroke="black" points="1125.84,-262.29 1135.85,-258.82 1125.86,-255.29 1125.84,-262.29"/>
</g>
<!-- csdl_alpha.src.operations.power.Power object at 0x7b945ef6b430 -->
<g id="node21" class="node">
<title>csdl_alpha.src.operations.power.Power object at 0x7b945ef6b430</title>
<ellipse fill="none" stroke="black" cx="89" cy="-549" rx="39.79" ry="18"/>
<text text-anchor="middle" x="89" y="-545.3" font-family="Times,serif" font-size="14.00">power</text>
</g>
<!-- csdl_alpha.src.graph.variable.Variable object at 0x7b9493b302b0&#45;&gt;csdl_alpha.src.operations.power.Power object at 0x7b945ef6b430 -->
<g id="edge22" class="edge">
<title>csdl_alpha.src.graph.variable.Variable object at 0x7b9493b302b0&#45;&gt;csdl_alpha.src.operations.power.Power object at 0x7b945ef6b430</title>
<path fill="none" stroke="black" d="M177.7,-611.4C173.9,-609.41 169.89,-607.51 166,-606 151.93,-600.55 146,-605.67 133,-598 122.97,-592.08 113.88,-583.14 106.61,-574.58"/>
<polygon fill="black" stroke="black" points="109.2,-572.22 100.21,-566.6 103.73,-576.59 109.2,-572.22"/>
</g>
<!-- csdl_alpha.src.graph.variable.Variable object at 0x7b945f716e50&#45;&gt;csdl_alpha.src.operations.implicit_operations.implicit_operation.ImplicitOperation object at 0x7b945ef6bd90 -->
<g id="edge16" class="edge">
<title>csdl_alpha.src.graph.variable.Variable object at 0x7b945f716e50&#45;&gt;csdl_alpha.src.operations.implicit_operations.implicit_operation.ImplicitOperation object at 0x7b945ef6bd90</title>
<path fill="none" stroke="black" d="M1148.33,-201.24C1125.23,-225.26 1083,-276.37 1083,-329 1083,-403 1083,-403 1083,-403 1083,-458.94 1078.2,-477.97 1045,-523 1044.72,-523.38 1044.43,-523.76 1044.13,-524.14"/>
<polygon fill="black" stroke="black" points="1041.49,-521.83 1037.03,-531.44 1046.51,-526.71 1041.49,-521.83"/>
</g>
<!-- csdl_alpha.src.graph.variable.Variable object at 0x7b945ef6b3d0 -->
<g id="node12" class="node">
<title>csdl_alpha.src.graph.variable.Variable object at 0x7b945ef6b3d0</title>
<ellipse fill="none" stroke="black" cx="690" cy="-474" rx="48.19" ry="18"/>
<text text-anchor="middle" x="690" y="-470.3" font-family="Times,serif" font-size="14.00">residual</text>
</g>
<!-- csdl_alpha.src.operations.implicit_operations.implicit_operation.ImplicitOperation object at 0x7b945ef6bd90&#45;&gt;csdl_alpha.src.graph.variable.Variable object at 0x7b945ef6b3d0 -->
<g id="edge10" class="edge">
<title>csdl_alpha.src.operations.implicit_operations.implicit_operation.ImplicitOperation object at 0x7b945ef6bd90&#45;&gt;csdl_alpha.src.graph.variable.Variable object at 0x7b945ef6b3d0</title>
<path fill="none" stroke="black" d="M909.15,-544.6C847.8,-541.33 775.65,-535.03 747,-523 733.82,-517.47 721.4,-507.77 711.54,-498.54"/>
<polygon fill="black" stroke="black" points="713.8,-495.84 704.22,-491.32 708.88,-500.83 713.8,-495.84"/>
</g>
<!-- csdl_alpha.src.graph.variable.Variable object at 0x7b945ef6b160 -->
<g id="node13" class="node">
<title>csdl_alpha.src.graph.variable.Variable object at 0x7b945ef6b160</title>
<ellipse fill="none" stroke="black" cx="597" cy="-474" rx="27" ry="18"/>
<text text-anchor="middle" x="597" y="-470.3" font-family="Times,serif" font-size="14.00">var</text>
</g>
<!-- csdl_alpha.src.operations.implicit_operations.implicit_operation.ImplicitOperation object at 0x7b945ef6bd90&#45;&gt;csdl_alpha.src.graph.variable.Variable object at 0x7b945ef6b160 -->
<g id="edge11" class="edge">
<title>csdl_alpha.src.operations.implicit_operations.implicit_operation.ImplicitOperation object at 0x7b945ef6bd90&#45;&gt;csdl_alpha.src.graph.variable.Variable object at 0x7b945ef6b160</title>
<path fill="none" stroke="black" d="M907.83,-545.6C804.71,-542.47 656.62,-535.8 633,-523 623.38,-517.79 615.6,-508.77 609.76,-499.96"/>
<polygon fill="black" stroke="black" points="612.74,-498.11 604.58,-491.35 606.74,-501.72 612.74,-498.11"/>
</g>
<!-- csdl_alpha.src.graph.variable.Variable object at 0x7b945ef6b1c0 -->
<g id="node14" class="node">
<title>csdl_alpha.src.graph.variable.Variable object at 0x7b945ef6b1c0</title>
<ellipse fill="none" stroke="black" cx="855" cy="-474" rx="27" ry="18"/>
<text text-anchor="middle" x="855" y="-470.3" font-family="Times,serif" font-size="14.00">var</text>
</g>
<!-- csdl_alpha.src.operations.implicit_operations.implicit_operation.ImplicitOperation object at 0x7b945ef6bd90&#45;&gt;csdl_alpha.src.graph.variable.Variable object at 0x7b945ef6b1c0 -->
<g id="edge12" class="edge">
<title>csdl_alpha.src.operations.implicit_operations.implicit_operation.ImplicitOperation object at 0x7b945ef6bd90&#45;&gt;csdl_alpha.src.graph.variable.Variable object at 0x7b945ef6b1c0</title>
<path fill="none" stroke="black" d="M928.35,-537.77C916.31,-534.21 904.44,-529.42 894,-523 884.53,-517.18 876.35,-508.22 869.95,-499.61"/>
<polygon fill="black" stroke="black" points="872.74,-497.48 864.17,-491.25 866.98,-501.46 872.74,-497.48"/>
</g>
<!-- csdl_alpha.src.graph.variable.ImplicitVariable object at 0x7b9493b300d0 -->
<g id="node15" class="node">
<title>csdl_alpha.src.graph.variable.ImplicitVariable object at 0x7b9493b300d0</title>
<ellipse fill="none" stroke="black" cx="413" cy="-474" rx="27" ry="18"/>
<text text-anchor="middle" x="413" y="-470.3" font-family="Times,serif" font-size="14.00">y2</text>
</g>
<!-- csdl_alpha.src.operations.implicit_operations.implicit_operation.ImplicitOperation object at 0x7b945ef6bd90&#45;&gt;csdl_alpha.src.graph.variable.ImplicitVariable object at 0x7b9493b300d0 -->
<g id="edge13" class="edge">
<title>csdl_alpha.src.operations.implicit_operations.implicit_operation.ImplicitOperation object at 0x7b945ef6bd90&#45;&gt;csdl_alpha.src.graph.variable.ImplicitVariable object at 0x7b9493b300d0</title>
<path fill="none" stroke="black" d="M906.26,-548.51C754.2,-548.51 482.91,-545.32 444,-523 435.28,-518 428.61,-509.43 423.72,-500.91"/>
<polygon fill="black" stroke="black" points="426.77,-499.18 419.12,-491.85 420.53,-502.35 426.77,-499.18"/>
</g>
<!-- csdl_alpha.src.graph.variable.Variable object at 0x7b945ef6b0d0 -->
<g id="node16" class="node">
<title>csdl_alpha.src.graph.variable.Variable object at 0x7b945ef6b0d0</title>
<ellipse fill="none" stroke="black" cx="1163" cy="-624" rx="27" ry="18"/>
<text text-anchor="middle" x="1163" y="-620.3" font-family="Times,serif" font-size="14.00">y1</text>
</g>
<!-- csdl_alpha.src.operations.implicit_operations.implicit_operation.ImplicitOperation object at 0x7b945ef6bd90&#45;&gt;csdl_alpha.src.graph.variable.Variable object at 0x7b945ef6b0d0 -->
<g id="edge14" class="edge">
<title>csdl_alpha.src.operations.implicit_operations.implicit_operation.ImplicitOperation object at 0x7b945ef6bd90&#45;&gt;csdl_alpha.src.graph.variable.Variable object at 0x7b945ef6b0d0</title>
<path fill="none" stroke="black" d="M1045.66,-565.84C1070.3,-576.69 1103.37,-591.65 1132,-606 1132.68,-606.34 1133.37,-606.69 1134.06,-607.04"/>
<polygon fill="black" stroke="black" points="1132.63,-610.24 1143.1,-611.81 1135.89,-604.05 1132.63,-610.24"/>
</g>
<!-- csdl_alpha.src.graph.variable.Variable object at 0x7b945f716ee0 -->
<g id="node17" class="node">
<title>csdl_alpha.src.graph.variable.Variable object at 0x7b945f716ee0</title>
<ellipse fill="none" stroke="black" cx="1307" cy="-624" rx="27" ry="18"/>
<text text-anchor="middle" x="1307" y="-620.3" font-family="Times,serif" font-size="14.00">var</text>
</g>
<!-- csdl_alpha.src.operations.implicit_operations.implicit_operation.ImplicitOperation object at 0x7b945ef6bd90&#45;&gt;csdl_alpha.src.graph.variable.Variable object at 0x7b945f716ee0 -->
<g id="edge15" class="edge">
<title>csdl_alpha.src.operations.implicit_operations.implicit_operation.ImplicitOperation object at 0x7b945ef6bd90&#45;&gt;csdl_alpha.src.graph.variable.Variable object at 0x7b945f716ee0</title>
<path fill="none" stroke="black" d="M1039.77,-566.24C1062.4,-577.33 1094.26,-591.2 1124,-598 1187.78,-612.59 1207.57,-589.95 1271,-606 1273.18,-606.55 1275.38,-607.24 1277.57,-608.01"/>
<polygon fill="black" stroke="black" points="1276.37,-611.3 1286.95,-611.87 1279.03,-604.83 1276.37,-611.3"/>
</g>
<!-- csdl_alpha.src.graph.variable.Variable object at 0x7b945ef6b220 -->
<g id="node18" class="node">
<title>csdl_alpha.src.graph.variable.Variable object at 0x7b945ef6b220</title>
<ellipse fill="none" stroke="black" cx="783" cy="-474" rx="27" ry="18"/>
<text text-anchor="middle" x="783" y="-470.3" font-family="Times,serif" font-size="14.00">var</text>
</g>
<!-- csdl_alpha.src.operations.implicit_operations.implicit_operation.ImplicitOperation object at 0x7b945ef6bd90&#45;&gt;csdl_alpha.src.graph.variable.Variable object at 0x7b945ef6b220 -->
<g id="edge17" class="edge">
<title>csdl_alpha.src.operations.implicit_operations.implicit_operation.ImplicitOperation object at 0x7b945ef6bd90&#45;&gt;csdl_alpha.src.graph.variable.Variable object at 0x7b945ef6b220</title>
<path fill="none" stroke="black" d="M913.59,-542.29C874.84,-538.58 835.37,-532.57 819,-523 809.79,-517.62 802.19,-508.86 796.38,-500.28"/>
<polygon fill="black" stroke="black" points="799.22,-498.23 790.99,-491.57 793.27,-501.91 799.22,-498.23"/>
</g>
<!-- csdl_alpha.src.graph.variable.Variable object at 0x7b945ef6bc70 -->
<g id="node19" class="node">
<title>csdl_alpha.src.graph.variable.Variable object at 0x7b945ef6bc70</title>
<ellipse fill="none" stroke="black" cx="1009" cy="-474" rx="27" ry="18"/>
<text text-anchor="middle" x="1009" y="-470.3" font-family="Times,serif" font-size="14.00">var</text>
</g>
<!-- csdl_alpha.src.operations.implicit_operations.implicit_operation.ImplicitOperation object at 0x7b945ef6bd90&#45;&gt;csdl_alpha.src.graph.variable.Variable object at 0x7b945ef6bc70 -->
<g id="edge18" class="edge">
<title>csdl_alpha.src.operations.implicit_operations.implicit_operation.ImplicitOperation object at 0x7b945ef6bd90&#45;&gt;csdl_alpha.src.graph.variable.Variable object at 0x7b945ef6bc70</title>
<path fill="none" stroke="black" d="M1009,-530.7C1009,-522.25 1009,-511.87 1009,-502.37"/>
<polygon fill="black" stroke="black" points="1012.5,-502.18 1009,-492.18 1005.5,-502.18 1012.5,-502.18"/>
</g>
<!-- csdl_alpha.src.operations.neg.Neg object at 0x7b945ef6b520 -->
<g id="node28" class="node">
<title>csdl_alpha.src.operations.neg.Neg object at 0x7b945ef6b520</title>
<ellipse fill="none" stroke="black" cx="126" cy="-402" rx="27.9" ry="18"/>
<text text-anchor="middle" x="126" y="-398.3" font-family="Times,serif" font-size="14.00">neg</text>
</g>
<!-- csdl_alpha.src.graph.variable.ImplicitVariable object at 0x7b9493b300d0&#45;&gt;csdl_alpha.src.operations.neg.Neg object at 0x7b945ef6b520 -->
<g id="edge31" class="edge">
<title>csdl_alpha.src.graph.variable.ImplicitVariable object at 0x7b9493b300d0&#45;&gt;csdl_alpha.src.operations.neg.Neg object at 0x7b945ef6b520</title>
<path fill="none" stroke="black" d="M391.35,-462.93C379.85,-457.9 365.37,-452.03 352,-448 286.79,-428.35 208.37,-414.93 163.14,-408.15"/>
<polygon fill="black" stroke="black" points="163.6,-404.68 153.2,-406.69 162.58,-411.61 163.6,-404.68"/>
</g>
<!-- csdl_alpha.src.operations.sub.Sub object at 0x7b945ef6b9d0 -->
<g id="node37" class="node">
<title>csdl_alpha.src.operations.sub.Sub object at 0x7b945ef6b9d0</title>
<ellipse fill="none" stroke="black" cx="484" cy="-402" rx="27.1" ry="18"/>
<text text-anchor="middle" x="484" y="-398.3" font-family="Times,serif" font-size="14.00">sub</text>
</g>
<!-- csdl_alpha.src.graph.variable.ImplicitVariable object at 0x7b9493b300d0&#45;&gt;csdl_alpha.src.operations.sub.Sub object at 0x7b945ef6b9d0 -->
<g id="edge41" class="edge">
<title>csdl_alpha.src.graph.variable.ImplicitVariable object at 0x7b9493b300d0&#45;&gt;csdl_alpha.src.operations.sub.Sub object at 0x7b945ef6b9d0</title>
<path fill="none" stroke="black" d="M427.71,-458.5C437.61,-448.73 450.84,-435.69 461.99,-424.7"/>
<polygon fill="black" stroke="black" points="464.64,-427 469.31,-417.49 459.73,-422.01 464.64,-427"/>
</g>
<!-- csdl_alpha.src.operations.add.Add object at 0x7b945ef6b4c0 -->
<g id="node26" class="node">
<title>csdl_alpha.src.operations.add.Add object at 0x7b945ef6b4c0</title>
<ellipse fill="none" stroke="black" cx="126" cy="-258" rx="27.9" ry="18"/>
<text text-anchor="middle" x="126" y="-254.3" font-family="Times,serif" font-size="14.00">add</text>
</g>
<!-- csdl_alpha.src.graph.variable.Variable object at 0x7b945ef6b0d0&#45;&gt;csdl_alpha.src.operations.add.Add object at 0x7b945ef6b4c0 -->
<g id="edge29" class="edge">
<title>csdl_alpha.src.graph.variable.Variable object at 0x7b945ef6b0d0&#45;&gt;csdl_alpha.src.operations.add.Add object at 0x7b945ef6b4c0</title>
<path fill="none" stroke="black" d="M1144.25,-610.92C1140.34,-608.92 1136.14,-607.14 1132,-606 1080.96,-592.01 946.71,-602.66 894,-598 777.26,-587.68 454.45,-606.29 372,-523 348.34,-499.1 378.54,-477.28 362,-448 313.53,-362.16 209.16,-300.54 156.99,-273.81"/>
<polygon fill="black" stroke="black" points="158.39,-270.6 147.89,-269.23 155.25,-276.85 158.39,-270.6"/>
</g>
<!-- csdl_alpha.src.operations.sub.Sub object at 0x7b945ef6b7f0 -->
<g id="node35" class="node">
<title>csdl_alpha.src.operations.sub.Sub object at 0x7b945ef6b7f0</title>
<ellipse fill="none" stroke="black" cx="301" cy="-549" rx="27.1" ry="18"/>
<text text-anchor="middle" x="301" y="-545.3" font-family="Times,serif" font-size="14.00">sub</text>
</g>
<!-- csdl_alpha.src.graph.variable.Variable object at 0x7b945ef6b0d0&#45;&gt;csdl_alpha.src.operations.sub.Sub object at 0x7b945ef6b7f0 -->
<g id="edge39" class="edge">
<title>csdl_alpha.src.graph.variable.Variable object at 0x7b945ef6b0d0&#45;&gt;csdl_alpha.src.operations.sub.Sub object at 0x7b945ef6b7f0</title>
<path fill="none" stroke="black" d="M1144.27,-610.84C1140.36,-608.85 1136.16,-607.09 1132,-606 1090.61,-595.17 402.35,-612.21 362,-598 346.86,-592.67 332.61,-581.91 321.69,-571.93"/>
<polygon fill="black" stroke="black" points="324,-569.29 314.37,-564.88 319.15,-574.34 324,-569.29"/>
</g>
<!-- csdl_alpha.src.graph.variable.Variable object at 0x7b945f716e20 -->
<g id="node20" class="node">
<title>csdl_alpha.src.graph.variable.Variable object at 0x7b945f716e20</title>
<ellipse fill="none" stroke="black" cx="1235" cy="-624" rx="27" ry="18"/>
<text text-anchor="middle" x="1235" y="-620.3" font-family="Times,serif" font-size="14.00">var</text>
</g>
<!-- csdl_alpha.src.graph.variable.Variable object at 0x7b945f716e20&#45;&gt;csdl_alpha.src.operations.implicit_operations.implicit_operation.ImplicitOperation object at 0x7b945ef6bd90 -->
<g id="edge20" class="edge">
<title>csdl_alpha.src.graph.variable.Variable object at 0x7b945f716e20&#45;&gt;csdl_alpha.src.operations.implicit_operations.implicit_operation.ImplicitOperation object at 0x7b945ef6bd90</title>
<path fill="none" stroke="black" d="M1214.52,-611.89C1209.56,-609.6 1204.19,-607.46 1199,-606 1166.73,-596.94 1156.47,-606.32 1124,-598 1098.62,-591.5 1071.53,-580.41 1050.01,-570.53"/>
<polygon fill="black" stroke="black" points="1051.39,-567.31 1040.85,-566.24 1048.42,-573.65 1051.39,-567.31"/>
</g>
<!-- csdl_alpha.src.graph.variable.Variable object at 0x7b945ef6b490 -->
<g id="node23" class="node">
<title>csdl_alpha.src.graph.variable.Variable object at 0x7b945ef6b490</title>
<ellipse fill="none" stroke="black" cx="70" cy="-474" rx="27" ry="18"/>
<text text-anchor="middle" x="70" y="-470.3" font-family="Times,serif" font-size="14.00">var</text>
</g>
<!-- csdl_alpha.src.operations.power.Power object at 0x7b945ef6b430&#45;&gt;csdl_alpha.src.graph.variable.Variable object at 0x7b945ef6b490 -->
<g id="edge24" class="edge">
<title>csdl_alpha.src.operations.power.Power object at 0x7b945ef6b430&#45;&gt;csdl_alpha.src.graph.variable.Variable object at 0x7b945ef6b490</title>
<path fill="none" stroke="black" d="M84.59,-531.07C82.32,-522.32 79.48,-511.43 76.92,-501.59"/>
<polygon fill="black" stroke="black" points="80.29,-500.64 74.38,-491.84 73.51,-502.4 80.29,-500.64"/>
</g>
<!-- csdl_alpha.src.graph.variable.Variable object at 0x7b945ef6b400 -->
<g id="node22" class="node">
<title>csdl_alpha.src.graph.variable.Variable object at 0x7b945ef6b400</title>
<ellipse fill="none" stroke="black" cx="89" cy="-624" rx="27" ry="18"/>
<text text-anchor="middle" x="89" y="-620.3" font-family="Times,serif" font-size="14.00">var</text>
</g>
<!-- csdl_alpha.src.graph.variable.Variable object at 0x7b945ef6b400&#45;&gt;csdl_alpha.src.operations.power.Power object at 0x7b945ef6b430 -->
<g id="edge23" class="edge">
<title>csdl_alpha.src.graph.variable.Variable object at 0x7b945ef6b400&#45;&gt;csdl_alpha.src.operations.power.Power object at 0x7b945ef6b430</title>
<path fill="none" stroke="black" d="M89,-605.7C89,-597.25 89,-586.87 89,-577.37"/>
<polygon fill="black" stroke="black" points="92.5,-577.18 89,-567.18 85.5,-577.18 92.5,-577.18"/>
</g>
<!-- csdl_alpha.src.graph.variable.Variable object at 0x7b945ef6b490&#45;&gt;csdl_alpha.src.operations.add.Add object at 0x7b945ef6b460 -->
<g id="edge25" class="edge">
<title>csdl_alpha.src.graph.variable.Variable object at 0x7b945ef6b490&#45;&gt;csdl_alpha.src.operations.add.Add object at 0x7b945ef6b460</title>
<path fill="none" stroke="black" d="M65.64,-456.05C63.61,-448.14 61.14,-438.54 58.86,-429.69"/>
<polygon fill="black" stroke="black" points="62.2,-428.6 56.32,-419.79 55.42,-430.35 62.2,-428.6"/>
</g>
<!-- csdl_alpha.src.graph.variable.Variable object at 0x7b945ef6b4f0 -->
<g id="node25" class="node">
<title>csdl_alpha.src.graph.variable.Variable object at 0x7b945ef6b4f0</title>
<ellipse fill="none" stroke="black" cx="126" cy="-330" rx="27" ry="18"/>
<text text-anchor="middle" x="126" y="-326.3" font-family="Times,serif" font-size="14.00">var</text>
</g>
<!-- csdl_alpha.src.operations.add.Add object at 0x7b945ef6b460&#45;&gt;csdl_alpha.src.graph.variable.Variable object at 0x7b945ef6b4f0 -->
<g id="edge27" class="edge">
<title>csdl_alpha.src.operations.add.Add object at 0x7b945ef6b460&#45;&gt;csdl_alpha.src.graph.variable.Variable object at 0x7b945ef6b4f0</title>
<path fill="none" stroke="black" d="M67.33,-386.5C77.82,-376.58 91.89,-363.26 103.63,-352.16"/>
<polygon fill="black" stroke="black" points="106.08,-354.66 110.94,-345.25 101.27,-349.58 106.08,-354.66"/>
</g>
<!-- csdl_alpha.src.graph.variable.Variable object at 0x7b945ef6b4f0&#45;&gt;csdl_alpha.src.operations.add.Add object at 0x7b945ef6b4c0 -->
<g id="edge28" class="edge">
<title>csdl_alpha.src.graph.variable.Variable object at 0x7b945ef6b4f0&#45;&gt;csdl_alpha.src.operations.add.Add object at 0x7b945ef6b4c0</title>
<path fill="none" stroke="black" d="M126,-311.7C126,-303.98 126,-294.71 126,-286.11"/>
<polygon fill="black" stroke="black" points="129.5,-286.1 126,-276.1 122.5,-286.1 129.5,-286.1"/>
</g>
<!-- csdl_alpha.src.graph.variable.Variable object at 0x7b945ef6b550 -->
<g id="node27" class="node">
<title>csdl_alpha.src.graph.variable.Variable object at 0x7b945ef6b550</title>
<ellipse fill="none" stroke="black" cx="125" cy="-186" rx="27" ry="18"/>
<text text-anchor="middle" x="125" y="-182.3" font-family="Times,serif" font-size="14.00">var</text>
</g>
<!-- csdl_alpha.src.operations.add.Add object at 0x7b945ef6b4c0&#45;&gt;csdl_alpha.src.graph.variable.Variable object at 0x7b945ef6b550 -->
<g id="edge30" class="edge">
<title>csdl_alpha.src.operations.add.Add object at 0x7b945ef6b4c0&#45;&gt;csdl_alpha.src.graph.variable.Variable object at 0x7b945ef6b550</title>
<path fill="none" stroke="black" d="M125.75,-239.7C125.64,-231.98 125.51,-222.71 125.39,-214.11"/>
<polygon fill="black" stroke="black" points="128.89,-214.05 125.24,-204.1 121.89,-214.15 128.89,-214.05"/>
</g>
<!-- csdl_alpha.src.operations.add.Add object at 0x7b945ef6b700 -->
<g id="node32" class="node">
<title>csdl_alpha.src.operations.add.Add object at 0x7b945ef6b700</title>
<ellipse fill="none" stroke="black" cx="89" cy="-114" rx="27.9" ry="18"/>
<text text-anchor="middle" x="89" y="-110.3" font-family="Times,serif" font-size="14.00">add</text>
</g>
<!-- csdl_alpha.src.graph.variable.Variable object at 0x7b945ef6b550&#45;&gt;csdl_alpha.src.operations.add.Add object at 0x7b945ef6b700 -->
<g id="edge35" class="edge">
<title>csdl_alpha.src.graph.variable.Variable object at 0x7b945ef6b550&#45;&gt;csdl_alpha.src.operations.add.Add object at 0x7b945ef6b700</title>
<path fill="none" stroke="black" d="M116.65,-168.76C112.35,-160.4 107.01,-150.02 102.17,-140.61"/>
<polygon fill="black" stroke="black" points="105.24,-138.93 97.55,-131.63 99.02,-142.13 105.24,-138.93"/>
</g>
<!-- csdl_alpha.src.graph.variable.Variable object at 0x7b945ef6b5b0 -->
<g id="node29" class="node">
<title>csdl_alpha.src.graph.variable.Variable object at 0x7b945ef6b5b0</title>
<ellipse fill="none" stroke="black" cx="53" cy="-330" rx="27" ry="18"/>
<text text-anchor="middle" x="53" y="-326.3" font-family="Times,serif" font-size="14.00">var</text>
</g>
<!-- csdl_alpha.src.operations.neg.Neg object at 0x7b945ef6b520&#45;&gt;csdl_alpha.src.graph.variable.Variable object at 0x7b945ef6b5b0 -->
<g id="edge32" class="edge">
<title>csdl_alpha.src.operations.neg.Neg object at 0x7b945ef6b520&#45;&gt;csdl_alpha.src.graph.variable.Variable object at 0x7b945ef6b5b0</title>
<path fill="none" stroke="black" d="M110.87,-386.5C100.63,-376.67 86.91,-363.52 75.4,-352.48"/>
<polygon fill="black" stroke="black" points="77.5,-349.64 67.86,-345.25 72.65,-354.69 77.5,-349.64"/>
</g>
<!-- csdl_alpha.src.operations.exp.Exp object at 0x7b945ef6b580 -->
<g id="node30" class="node">
<title>csdl_alpha.src.operations.exp.Exp object at 0x7b945ef6b580</title>
<ellipse fill="none" stroke="black" cx="53" cy="-258" rx="27.1" ry="18"/>
<text text-anchor="middle" x="53" y="-254.3" font-family="Times,serif" font-size="14.00">exp</text>
</g>
<!-- csdl_alpha.src.graph.variable.Variable object at 0x7b945ef6b5b0&#45;&gt;csdl_alpha.src.operations.exp.Exp object at 0x7b945ef6b580 -->
<g id="edge33" class="edge">
<title>csdl_alpha.src.graph.variable.Variable object at 0x7b945ef6b5b0&#45;&gt;csdl_alpha.src.operations.exp.Exp object at 0x7b945ef6b580</title>
<path fill="none" stroke="black" d="M53,-311.7C53,-303.98 53,-294.71 53,-286.11"/>
<polygon fill="black" stroke="black" points="56.5,-286.1 53,-276.1 49.5,-286.1 56.5,-286.1"/>
</g>
<!-- csdl_alpha.src.graph.variable.Variable object at 0x7b945ef6b730 -->
<g id="node31" class="node">
<title>csdl_alpha.src.graph.variable.Variable object at 0x7b945ef6b730</title>
<ellipse fill="none" stroke="black" cx="53" cy="-186" rx="27" ry="18"/>
<text text-anchor="middle" x="53" y="-182.3" font-family="Times,serif" font-size="14.00">var</text>
</g>
<!-- csdl_alpha.src.operations.exp.Exp object at 0x7b945ef6b580&#45;&gt;csdl_alpha.src.graph.variable.Variable object at 0x7b945ef6b730 -->
<g id="edge34" class="edge">
<title>csdl_alpha.src.operations.exp.Exp object at 0x7b945ef6b580&#45;&gt;csdl_alpha.src.graph.variable.Variable object at 0x7b945ef6b730</title>
<path fill="none" stroke="black" d="M53,-239.7C53,-231.98 53,-222.71 53,-214.11"/>
<polygon fill="black" stroke="black" points="56.5,-214.1 53,-204.1 49.5,-214.1 56.5,-214.1"/>
</g>
<!-- csdl_alpha.src.graph.variable.Variable object at 0x7b945ef6b730&#45;&gt;csdl_alpha.src.operations.add.Add object at 0x7b945ef6b700 -->
<g id="edge36" class="edge">
<title>csdl_alpha.src.graph.variable.Variable object at 0x7b945ef6b730&#45;&gt;csdl_alpha.src.operations.add.Add object at 0x7b945ef6b700</title>
<path fill="none" stroke="black" d="M61.35,-168.76C65.65,-160.4 70.99,-150.02 75.83,-140.61"/>
<polygon fill="black" stroke="black" points="78.98,-142.13 80.45,-131.63 72.76,-138.93 78.98,-142.13"/>
</g>
<!-- csdl_alpha.src.graph.variable.Variable object at 0x7b945ef6b790 -->
<g id="node33" class="node">
<title>csdl_alpha.src.graph.variable.Variable object at 0x7b945ef6b790</title>
<ellipse fill="none" stroke="black" cx="89" cy="-42" rx="27" ry="18"/>
<text text-anchor="middle" x="89" y="-38.3" font-family="Times,serif" font-size="14.00">f</text>
</g>
<!-- csdl_alpha.src.operations.add.Add object at 0x7b945ef6b700&#45;&gt;csdl_alpha.src.graph.variable.Variable object at 0x7b945ef6b790 -->
<g id="edge37" class="edge">
<title>csdl_alpha.src.operations.add.Add object at 0x7b945ef6b700&#45;&gt;csdl_alpha.src.graph.variable.Variable object at 0x7b945ef6b790</title>
<path fill="none" stroke="black" d="M89,-95.7C89,-87.98 89,-78.71 89,-70.11"/>
<polygon fill="black" stroke="black" points="92.5,-70.1 89,-60.1 85.5,-70.1 92.5,-70.1"/>
</g>
<!-- csdl_alpha.src.graph.variable.Variable object at 0x7b945ef6b7c0 -->
<g id="node34" class="node">
<title>csdl_alpha.src.graph.variable.Variable object at 0x7b945ef6b7c0</title>
<ellipse fill="none" stroke="black" cx="301" cy="-624" rx="27" ry="18"/>
<text text-anchor="middle" x="301" y="-620.3" font-family="Times,serif" font-size="14.00">var</text>
</g>
<!-- csdl_alpha.src.graph.variable.Variable object at 0x7b945ef6b7c0&#45;&gt;csdl_alpha.src.operations.sub.Sub object at 0x7b945ef6b7f0 -->
<g id="edge38" class="edge">
<title>csdl_alpha.src.graph.variable.Variable object at 0x7b945ef6b7c0&#45;&gt;csdl_alpha.src.operations.sub.Sub object at 0x7b945ef6b7f0</title>
<path fill="none" stroke="black" d="M301,-605.7C301,-597.25 301,-586.87 301,-577.37"/>
<polygon fill="black" stroke="black" points="304.5,-577.18 301,-567.18 297.5,-577.18 304.5,-577.18"/>
</g>
<!-- csdl_alpha.src.graph.variable.Variable object at 0x7b945ef6b9a0 -->
<g id="node36" class="node">
<title>csdl_alpha.src.graph.variable.Variable object at 0x7b945ef6b9a0</title>
<ellipse fill="none" stroke="black" cx="301" cy="-474" rx="27" ry="18"/>
<text text-anchor="middle" x="301" y="-470.3" font-family="Times,serif" font-size="14.00">g1</text>
</g>
<!-- csdl_alpha.src.operations.sub.Sub object at 0x7b945ef6b7f0&#45;&gt;csdl_alpha.src.graph.variable.Variable object at 0x7b945ef6b9a0 -->
<g id="edge40" class="edge">
<title>csdl_alpha.src.operations.sub.Sub object at 0x7b945ef6b7f0&#45;&gt;csdl_alpha.src.graph.variable.Variable object at 0x7b945ef6b9a0</title>
<path fill="none" stroke="black" d="M301,-530.7C301,-522.25 301,-511.87 301,-502.37"/>
<polygon fill="black" stroke="black" points="304.5,-502.18 301,-492.18 297.5,-502.18 304.5,-502.18"/>
</g>
<!-- csdl_alpha.src.graph.variable.Variable object at 0x7b945ef6bbb0 -->
<g id="node39" class="node">
<title>csdl_alpha.src.graph.variable.Variable object at 0x7b945ef6bbb0</title>
<ellipse fill="none" stroke="black" cx="484" cy="-330" rx="27" ry="18"/>
<text text-anchor="middle" x="484" y="-326.3" font-family="Times,serif" font-size="14.00">g2</text>
</g>
<!-- csdl_alpha.src.operations.sub.Sub object at 0x7b945ef6b9d0&#45;&gt;csdl_alpha.src.graph.variable.Variable object at 0x7b945ef6bbb0 -->
<g id="edge43" class="edge">
<title>csdl_alpha.src.operations.sub.Sub object at 0x7b945ef6b9d0&#45;&gt;csdl_alpha.src.graph.variable.Variable object at 0x7b945ef6bbb0</title>
<path fill="none" stroke="black" d="M484,-383.7C484,-375.98 484,-366.71 484,-358.11"/>
<polygon fill="black" stroke="black" points="487.5,-358.1 484,-348.1 480.5,-358.1 487.5,-358.1"/>
</g>
<!-- csdl_alpha.src.graph.variable.Variable object at 0x7b945ef6ba30 -->
<g id="node38" class="node">
<title>csdl_alpha.src.graph.variable.Variable object at 0x7b945ef6ba30</title>
<ellipse fill="none" stroke="black" cx="485" cy="-474" rx="27" ry="18"/>
<text text-anchor="middle" x="485" y="-470.3" font-family="Times,serif" font-size="14.00">var</text>
</g>
<!-- csdl_alpha.src.graph.variable.Variable object at 0x7b945ef6ba30&#45;&gt;csdl_alpha.src.operations.sub.Sub object at 0x7b945ef6b9d0 -->
<g id="edge42" class="edge">
<title>csdl_alpha.src.graph.variable.Variable object at 0x7b945ef6ba30&#45;&gt;csdl_alpha.src.operations.sub.Sub object at 0x7b945ef6b9d0</title>
<path fill="none" stroke="black" d="M484.75,-455.7C484.64,-447.98 484.51,-438.71 484.39,-430.11"/>
<polygon fill="black" stroke="black" points="487.89,-430.05 484.24,-420.1 480.89,-430.15 487.89,-430.05"/>
</g>
</g>
</svg>
